<?xml version="1.0" encoding="UTF-8" ?>
<!DOCTYPE svg PUBLIC "-//W3C//DTD SVG 1.1//EN" "http://www.w3.org/Graphics/SVG/1.1/DTD/svg11.dtd">
<svg width="599pt" height="586pt" viewBox="0 0 599 586" version="1.1" xmlns="http://www.w3.org/2000/svg">
<g id="#f5f5f5ff">
</g>
<g id="#010103ff">
<path fill="#010103" opacity="1.00" d=" M 413.46 224.59 C 459.51 224.64 505.56 224.71 551.60 224.55 C 551.64 227.10 551.63 229.65 551.54 232.21 C 524.60 232.20 497.66 232.31 470.73 232.15 C 467.82 231.93 464.92 231.53 462.00 231.53 C 446.33 231.56 430.65 231.61 414.98 231.52 C 412.51 231.52 410.03 231.62 407.59 231.94 C 391.96 232.57 376.29 232.07 360.64 232.19 L 360.30 232.19 C 349.91 230.91 339.40 231.85 328.96 231.57 C 322.67 231.65 316.35 231.25 310.09 232.02 L 309.68 232.06 C 298.10 232.28 286.47 232.40 274.90 232.00 C 268.29 231.22 261.63 231.69 255.00 231.56 C 237.26 231.40 219.51 231.94 201.78 231.36 L 201.09 231.32 L 201.00 231.31 C 201.26 229.79 201.41 228.26 201.59 226.74 C 209.36 227.36 217.15 226.46 224.93 227.10 C 230.95 226.88 236.98 226.87 243.02 226.87 C 256.02 227.17 269.02 226.60 282.03 227.15 C 298.04 226.61 314.03 227.25 330.04 226.90 C 336.69 227.49 343.35 226.41 350.01 227.05 C 357.34 226.46 364.67 227.44 372.00 226.86 C 373.66 226.88 375.33 226.89 377.00 226.90 C 387.69 227.16 398.39 226.59 409.08 227.13 C 410.81 226.94 413.94 227.32 413.46 224.59 Z" />
<path fill="#010103" opacity="1.00" d=" M 317.88 251.53 C 347.47 251.56 377.06 251.56 406.65 251.52 C 406.64 252.64 406.64 253.77 406.64 254.90 C 400.48 253.68 394.15 254.59 387.93 254.01 C 366.97 254.57 345.99 254.19 325.02 254.25 C 322.76 254.30 320.53 254.61 318.30 254.90 L 317.70 254.86 C 317.75 254.03 317.83 252.36 317.88 251.53 Z" />
</g>
<g id="#0604e4ff">
<path fill="#0604e4" opacity="1.00" d=" M 200.61 230.87 C 200.55 229.58 200.48 228.30 200.42 227.01 C 200.59 228.45 200.78 229.88 201.00 231.31 C 179.98 230.48 158.92 231.48 137.90 230.86 C 158.80 230.85 179.71 230.83 200.61 230.87 Z" />
<path fill="#0604e4" opacity="1.00" d=" M 144.22 285.08 C 152.17 284.76 160.24 285.66 168.10 284.22 C 172.24 285.88 176.74 285.06 181.06 285.18 C 236.80 285.12 292.54 285.00 348.28 285.26 C 348.27 285.79 348.23 286.85 348.21 287.38 C 346.19 287.91 344.11 288.26 342.02 288.28 C 292.35 288.24 242.68 288.26 193.01 288.24 C 191.06 288.18 189.11 288.07 187.17 287.94 C 172.97 287.29 158.75 287.94 144.54 287.60 C 144.46 286.97 144.30 285.71 144.22 285.08 Z" />
</g>
<g id="#0f05aaff">
<path fill="#0f05aa" opacity="1.00" d=" M 48.19 231.20 C 52.69 231.21 57.18 231.20 61.68 231.23 C 61.63 232.25 61.58 233.28 61.53 234.31 C 57.18 234.26 52.82 234.25 48.47 234.35 C 48.37 233.30 48.28 232.25 48.19 231.20 Z" />
</g>
<g id="#1a129cff">
<path fill="#1a129c" opacity="1.00" d=" M 79.45 231.28 C 81.84 231.18 84.23 231.16 86.62 231.20 C 86.52 232.22 86.43 233.25 86.33 234.27 C 84.10 234.26 81.87 234.28 79.64 234.32 C 79.57 233.30 79.51 232.29 79.45 231.28 Z" />
</g>
<g id="#0f08afff">
<path fill="#0f08af" opacity="1.00" d=" M 90.13 231.24 C 96.56 231.21 103.00 231.12 109.43 231.28 C 109.39 232.27 109.34 233.27 109.30 234.27 C 103.00 234.32 96.70 234.20 90.39 234.34 C 90.30 233.30 90.22 232.27 90.13 231.24 Z" />
<path fill="#0f08af" opacity="1.00" d=" M 137.13 233.92 C 138.35 232.47 140.06 231.79 141.94 231.94 C 153.62 231.85 165.29 232.05 176.96 231.88 C 185.01 231.76 193.08 232.32 201.09 231.32 L 201.78 231.36 L 202.35 232.77 C 195.89 232.73 189.43 232.78 182.97 232.84 C 181.01 232.79 179.16 233.46 177.39 234.19 C 177.15 234.18 176.68 234.16 176.44 234.15 C 163.34 233.77 150.23 234.00 137.13 233.92 Z" />
<path fill="#0f08af" opacity="1.00" d=" M 474.51 262.42 C 480.45 261.98 486.43 262.12 492.38 262.35 C 487.50 265.68 480.57 265.37 475.35 263.02 L 474.51 262.42 Z" />
</g>
<g id="#4141b0ff">
<path fill="#4141b0" opacity="1.00" d=" M 137.13 233.92 C 137.41 232.91 137.65 231.88 137.90 230.86 C 158.92 231.48 179.98 230.48 201.00 231.31 L 201.09 231.32 C 193.08 232.32 185.01 231.76 176.96 231.88 C 165.29 232.05 153.62 231.85 141.94 231.94 C 140.06 231.79 138.35 232.47 137.13 233.92 Z" />
</g>
<g id="#09068dff">
<path fill="#09068d" opacity="1.00" d=" M 407.59 231.94 C 410.03 231.62 412.51 231.52 414.98 231.52 C 430.65 231.61 446.33 231.56 462.00 231.53 C 464.92 231.53 467.82 231.93 470.73 232.15 C 470.67 232.69 470.54 233.78 470.48 234.33 C 449.47 234.19 428.45 234.26 407.43 234.29 C 407.47 233.70 407.55 232.53 407.59 231.94 Z" />
<path fill="#09068d" opacity="1.00" d=" M 201.78 231.36 C 219.51 231.94 237.26 231.40 255.00 231.56 C 261.63 231.69 268.29 231.22 274.90 232.00 C 274.96 232.55 275.08 233.65 275.14 234.20 C 262.91 233.44 250.62 234.41 238.39 233.66 C 235.62 233.11 232.81 232.63 229.98 232.71 C 220.77 232.86 211.56 232.87 202.35 232.77 L 201.78 231.36 Z" />
<path fill="#09068d" opacity="1.00" d=" M 310.09 232.02 C 316.35 231.25 322.67 231.65 328.96 231.57 C 339.40 231.85 349.91 230.91 360.30 232.19 C 359.08 233.18 357.77 234.20 356.09 233.93 C 342.04 233.88 327.99 233.94 313.94 233.90 C 312.31 234.14 311.01 233.29 310.09 232.02 Z" />
<path fill="#09068d" opacity="1.00" d=" M 365.28 284.07 C 374.78 284.10 384.29 284.09 393.79 284.10 C 393.68 285.70 393.61 287.32 393.54 288.93 C 384.16 288.85 374.78 288.82 365.41 288.96 C 365.39 287.33 365.35 285.70 365.28 284.07 M 367.59 287.49 C 375.53 288.16 383.56 287.81 391.53 287.62 C 391.62 286.97 391.80 285.68 391.90 285.03 C 384.66 284.09 377.32 284.79 370.04 284.66 C 368.36 284.37 365.08 285.88 367.59 287.49 Z" />
<path fill="#09068d" opacity="1.00" d=" M 533.52 310.35 C 537.73 310.09 541.96 310.26 546.17 310.45 C 546.29 311.44 546.51 313.40 546.62 314.39 C 544.76 314.36 542.91 314.35 541.06 314.36 C 542.14 313.29 543.23 312.23 544.32 311.16 C 541.91 310.90 539.46 310.19 537.05 310.77 C 536.20 311.80 535.81 313.03 535.88 314.48 C 533.06 314.91 533.70 312.18 533.52 310.35 Z" />
</g>
<g id="#b2b4f7ff">
</g>
<g id="#002d7cff">
<path fill="#002d7c" opacity="1.00" d=" M 177.39 234.19 C 179.16 233.46 181.01 232.79 182.97 232.84 C 189.43 232.78 195.89 232.73 202.35 232.77 C 211.56 232.87 220.77 232.86 229.98 232.71 C 232.81 232.63 235.62 233.11 238.39 233.66 L 237.35 234.38 C 217.36 234.24 197.37 234.52 177.39 234.19 Z" />
</g>
<g id="#afb4fdff">
<path fill="#afb4fd" opacity="1.00" d=" M 137.13 233.92 C 150.23 234.00 163.34 233.77 176.44 234.15 C 176.30 234.40 176.03 234.89 175.90 235.14 C 164.59 234.85 153.28 235.02 141.97 234.99 C 140.29 235.01 138.59 234.81 137.13 233.92 Z" />
</g>
<g id="#7aee7fff">
<path fill="#7aee7f" opacity="1.00" d=" M 176.44 234.15 C 176.68 234.16 177.15 234.18 177.39 234.19 C 197.37 234.52 217.36 234.24 237.35 234.38 L 236.55 234.95 C 220.07 234.14 203.55 234.89 187.05 234.60 C 184.49 234.71 181.73 234.31 179.34 235.41 C 178.45 236.75 177.94 238.29 177.25 239.74 C 176.87 239.75 176.11 239.76 175.73 239.77 C 175.42 238.94 175.12 238.12 174.81 237.30 C 175.08 236.76 175.63 235.68 175.90 235.14 C 176.03 234.89 176.30 234.40 176.44 234.15 Z" />
</g>
<g id="#98e4a8ff">
</g>
<g id="#b5bbfdff">
</g>
<g id="#21f030ff">
<path fill="#21f030" opacity="1.00" d=" M 179.34 235.41 C 181.73 234.31 184.49 234.71 187.05 234.60 C 203.55 234.89 220.07 234.14 236.55 234.95 C 236.55 236.54 236.61 238.14 236.66 239.74 C 216.86 239.72 197.05 239.70 177.25 239.74 C 177.94 238.29 178.45 236.75 179.34 235.41 Z" />
</g>
<g id="#050505ff">
<path fill="#050505" opacity="1.00" d=" M 371.31 239.51 C 375.04 239.08 374.20 243.10 374.28 245.50 C 373.26 245.56 372.24 245.62 371.23 245.68 C 371.25 243.62 371.26 241.56 371.31 239.51 Z" />
<path fill="#050505" opacity="1.00" d=" M 148.34 369.33 C 160.76 369.33 173.18 369.35 185.59 369.38 C 185.58 370.15 185.57 371.71 185.56 372.49 C 173.16 372.46 160.77 372.34 148.37 372.42 C 148.36 371.39 148.35 370.36 148.34 369.33 Z" />
</g>
<g id="#888888ff">
</g>
<g id="#010303ff">
<path fill="#010303" opacity="1.00" d=" M 162.57 239.79 C 166.95 239.71 171.34 239.74 175.73 239.77 C 176.11 239.76 176.87 239.75 177.25 239.74 C 197.05 239.70 216.86 239.72 236.66 239.74 C 237.18 239.74 238.22 239.74 238.73 239.74 C 261.36 239.73 283.99 239.75 306.61 239.72 C 306.64 241.69 306.67 243.66 306.73 245.64 C 258.67 245.64 210.60 245.67 162.53 245.62 C 162.53 243.67 162.53 241.73 162.57 239.79 Z" />
</g>
<g id="#0c0c0cff">
<path fill="#0c0c0c" opacity="1.00" d=" M 315.18 239.78 C 315.70 239.77 316.73 239.77 317.24 239.77 C 317.27 241.68 317.31 243.60 317.38 245.52 C 316.83 245.58 315.74 245.69 315.20 245.75 C 315.17 243.75 315.17 241.76 315.18 239.78 Z" />
<path fill="#0c0c0c" opacity="1.00" d=" M 330.69 245.67 C 330.97 243.45 329.49 240.27 332.31 239.21 C 332.38 241.31 332.39 243.42 332.42 245.53 C 331.99 245.56 331.12 245.63 330.69 245.67 Z" />
<path fill="#0c0c0c" opacity="1.00" d=" M 333.88 246.56 C 333.60 244.53 331.74 239.52 335.20 239.62 C 334.94 241.95 335.32 244.53 333.88 246.56 Z" />
<path fill="#0c0c0c" opacity="1.00" d=" M 358.88 239.32 C 361.64 240.31 360.14 243.59 360.50 245.76 C 360.05 245.67 359.17 245.49 358.73 245.40 C 358.77 243.37 358.79 241.34 358.88 239.32 Z" />
<path fill="#0c0c0c" opacity="1.00" d=" M 390.41 246.23 C 389.23 244.13 389.35 241.27 390.59 239.21 C 390.82 241.55 390.76 243.91 390.41 246.23 Z" />
<path fill="#0c0c0c" opacity="1.00" d=" M 547.78 258.30 C 551.74 257.19 555.94 258.12 560.00 257.84 C 563.09 258.12 566.45 257.12 569.38 258.45 C 562.19 258.71 554.95 258.91 547.78 258.30 Z" />
<path fill="#0c0c0c" opacity="1.00" d=" M 548.31 285.51 C 553.86 285.67 559.43 285.48 564.99 285.71 C 565.28 285.88 565.86 286.21 566.16 286.38 C 560.20 286.66 554.24 286.66 548.28 286.65 C 548.29 286.37 548.30 285.79 548.31 285.51 Z" />
<path fill="#0c0c0c" opacity="1.00" d=" M 172.71 387.75 C 174.33 387.72 175.95 387.70 177.57 387.67 C 177.61 389.24 177.64 390.81 177.68 392.39 C 176.00 392.40 174.32 392.39 172.64 392.38 C 172.67 390.83 172.68 389.29 172.71 387.75 Z" />
</g>
<g id="#000200ff">
<path fill="#000200" opacity="1.00" d=" M 318.46 245.60 C 318.50 243.52 318.50 241.45 318.59 239.38 C 321.81 239.86 320.06 243.51 320.53 245.64 C 320.02 245.63 318.98 245.61 318.46 245.60 Z" />
</g>
<g id="#010502ff">
<path fill="#010502" opacity="1.00" d=" M 323.16 239.78 C 323.86 239.77 325.26 239.76 325.96 239.75 C 325.94 241.62 325.92 243.48 325.91 245.36 C 326.60 245.38 327.99 245.42 328.69 245.44 L 328.97 245.45 C 327.03 245.52 325.09 245.59 323.16 245.67 C 323.16 243.71 323.15 241.74 323.16 239.78 Z" />
</g>
<g id="#6a6e65ff">
<path fill="#6a6e65" opacity="1.00" d=" M 325.96 239.75 C 326.71 239.77 328.21 239.79 328.95 239.81 C 328.86 241.68 328.77 243.56 328.69 245.44 C 327.99 245.42 326.60 245.38 325.91 245.36 C 325.92 243.48 325.94 241.62 325.96 239.75 Z" />
</g>
<g id="#303230ff">
<path fill="#303230" opacity="1.00" d=" M 335.80 239.75 C 336.42 239.76 337.67 239.77 338.30 239.78 C 338.29 241.74 338.30 243.71 338.33 245.68 C 337.62 245.65 336.20 245.59 335.49 245.55 C 335.60 243.62 335.70 241.68 335.80 239.75 Z" />
</g>
<g id="#010200ff">
<path fill="#010200" opacity="1.00" d=" M 338.80 239.77 C 339.69 239.77 341.45 239.77 342.34 239.77 C 342.33 241.71 342.34 243.66 342.38 245.61 C 341.50 245.61 339.74 245.60 338.86 245.60 C 338.86 243.65 338.84 241.71 338.80 239.77 Z" />
</g>
<g id="#0e0f0aff">
<path fill="#0e0f0a" opacity="1.00" d=" M 343.59 239.74 C 344.29 239.75 345.68 239.76 346.38 239.76 C 346.40 241.72 346.43 243.68 346.49 245.64 C 345.47 245.62 344.45 245.61 343.44 245.59 C 343.50 243.64 343.55 241.69 343.59 239.74 Z" />
</g>
<g id="#111214ff">
<path fill="#111214" opacity="1.00" d=" M 354.71 245.64 C 355.10 243.39 353.26 238.93 357.13 239.59 C 357.15 241.59 357.19 243.59 357.26 245.60 C 356.41 245.61 355.55 245.62 354.71 245.64 Z" />
</g>
<g id="#0b0e0bff">
<path fill="#0b0e0b" opacity="1.00" d=" M 363.20 240.13 C 364.42 240.82 364.34 244.55 363.16 245.22 C 362.52 243.65 362.49 241.67 363.20 240.13 Z" />
</g>
<g id="#272927ff">
<path fill="#272927" opacity="1.00" d=" M 364.28 239.70 C 365.11 239.70 366.76 239.70 367.59 239.70 C 367.61 241.67 367.65 243.64 367.70 245.61 C 366.85 245.62 365.15 245.65 364.30 245.66 C 364.30 243.67 364.30 241.68 364.28 239.70 Z" />
</g>
<g id="#393a38ff">
<path fill="#393a38" opacity="1.00" d=" M 368.38 245.24 C 367.95 243.79 367.32 240.92 368.69 240.08 C 369.21 241.50 369.71 244.45 368.38 245.24 Z" />
</g>
<g id="#080909ff">
<path fill="#080909" opacity="1.00" d=" M 380.84 245.50 C 381.09 243.21 379.68 239.37 383.39 239.67 C 383.07 241.95 384.62 246.10 380.84 245.50 Z" />
</g>
<g id="#0c0b0bff">
<path fill="#0c0b0b" opacity="1.00" d=" M 385.35 240.34 C 386.67 240.69 386.66 244.39 385.30 244.75 C 384.51 243.47 384.60 241.61 385.35 240.34 Z" />
</g>
<g id="#565559ff">
<path fill="#565559" opacity="1.00" d=" M 393.20 245.35 C 391.88 244.51 391.85 240.59 393.43 240.00 C 393.65 241.77 393.56 243.59 393.20 245.35 Z" />
</g>
<g id="#87888dff">
</g>
<g id="#111219ff">
<path fill="#111219" opacity="1.00" d=" M 397.25 239.18 C 398.87 241.21 398.44 244.12 397.72 246.43 C 397.02 244.08 397.01 241.60 397.25 239.18 Z" />
<path fill="#111219" opacity="1.00" d=" M 536.91 286.45 C 539.42 284.66 542.84 285.91 545.72 285.49 C 545.73 285.79 545.76 286.37 545.77 286.66 C 542.81 286.68 539.85 286.76 536.91 286.45 Z" />
<path fill="#111219" opacity="1.00" d=" M 521.38 378.68 C 527.34 378.87 533.33 378.45 539.29 378.96 C 538.85 379.99 538.11 380.47 537.06 380.38 C 531.80 380.46 526.54 380.39 521.28 380.42 C 521.31 379.99 521.35 379.12 521.38 378.68 Z" />
</g>
<g id="#48db43ff">
<path fill="#48db43" opacity="1.00" d=" M 413.27 243.37 C 418.89 243.65 424.44 242.48 430.06 242.66 C 443.37 242.75 456.68 242.63 470.00 242.68 C 472.02 242.69 474.02 243.07 476.02 243.40 C 476.11 244.94 475.45 245.64 474.03 245.51 C 453.85 245.67 433.66 245.62 413.48 245.53 C 413.43 244.99 413.32 243.91 413.27 243.37 Z" />
<path fill="#48db43" opacity="1.00" d=" M 104.43 244.45 C 112.67 244.54 121.06 243.71 129.21 244.79 L 129.54 245.99 C 129.32 246.36 128.88 247.12 128.66 247.49 C 120.61 247.78 112.53 247.59 104.47 247.53 C 104.46 246.50 104.45 245.47 104.43 244.45 Z" />
</g>
<g id="#0a0a0aff">
<path fill="#0a0a0a" opacity="1.00" d=" M 55.53 251.48 C 57.17 251.50 58.81 251.51 60.45 251.53 C 60.43 252.57 60.39 254.65 60.37 255.69 C 58.73 255.68 57.10 255.68 55.47 255.67 C 55.49 254.27 55.51 252.87 55.53 251.48 Z" />
<path fill="#0a0a0a" opacity="1.00" d=" M 140.40 387.63 C 143.12 387.65 145.88 387.51 148.54 388.17 C 150.73 387.67 152.98 387.70 155.21 387.73 C 155.22 389.28 155.23 390.83 155.24 392.39 C 153.03 392.40 150.82 392.39 148.62 392.45 C 148.66 391.49 148.76 389.58 148.81 388.62 C 148.56 389.56 148.06 391.43 147.81 392.36 C 145.29 392.43 142.77 392.43 140.25 392.38 C 140.30 390.79 140.35 389.21 140.40 387.63 Z" />
</g>
<g id="#020304ff">
<path fill="#020304" opacity="1.00" d=" M 98.39 251.52 C 103.41 251.62 108.44 251.49 113.46 251.54 C 113.47 252.91 113.49 254.28 113.50 255.65 C 108.44 255.68 103.37 255.61 98.31 255.66 C 98.34 254.28 98.36 252.90 98.39 251.52 Z" />
</g>
<g id="#1e0000ff">
<path fill="#1e0000" opacity="1.00" d=" M 137.49 251.53 C 197.62 251.50 257.75 251.50 317.88 251.53 C 317.83 252.36 317.75 254.03 317.70 254.86 C 315.79 254.75 313.87 254.65 311.96 254.61 C 262.66 254.62 213.35 254.66 164.04 254.61 C 158.32 254.69 152.53 254.12 146.87 255.21 C 146.08 255.34 145.28 255.46 144.49 255.56 C 142.15 255.77 139.79 255.68 137.45 255.70 C 137.46 254.31 137.48 252.92 137.49 251.53 Z" />
</g>
<g id="#030303ff">
<path fill="#030303" opacity="1.00" d=" M 42.72 251.56 C 46.31 251.57 49.89 251.58 53.48 251.49 C 53.48 252.54 53.48 254.63 53.48 255.67 C 49.88 255.63 46.27 255.62 42.66 255.64 C 42.68 254.62 42.71 252.58 42.72 251.56 Z" />
<path fill="#030303" opacity="1.00" d=" M 121.60 392.42 C 121.71 390.78 121.90 389.16 122.21 387.56 C 123.93 387.66 125.65 387.76 127.37 387.86 L 127.26 388.67 C 127.15 389.53 126.93 391.26 126.81 392.12 C 125.07 392.22 123.33 392.32 121.60 392.42 Z" />
</g>
<g id="#010001ff">
<path fill="#010001" opacity="1.00" d=" M 61.61 251.52 C 65.21 251.51 68.81 251.53 72.41 251.52 C 72.42 252.56 72.43 254.63 72.44 255.67 C 68.84 255.65 65.24 255.66 61.64 255.65 C 61.63 254.62 61.61 252.55 61.61 251.52 Z" />
</g>
<g id="#040404ff">
<path fill="#040404" opacity="1.00" d=" M 73.72 251.57 C 76.24 251.53 78.75 251.52 81.27 251.55 C 81.28 252.55 81.30 254.54 81.31 255.54 C 78.86 255.68 76.42 255.68 73.97 255.66 C 73.88 254.29 73.80 252.93 73.72 251.57 Z" />
<path fill="#040404" opacity="1.00" d=" M 90.23 369.32 C 97.37 369.37 104.50 369.27 111.63 369.41 C 111.60 370.41 111.56 371.42 111.53 372.44 C 104.42 372.41 97.30 372.35 90.19 372.43 C 90.20 371.38 90.22 370.35 90.23 369.32 Z" />
<path fill="#040404" opacity="1.00" d=" M 119.66 369.40 C 124.69 369.30 129.72 369.36 134.74 369.38 C 134.74 370.13 134.75 371.64 134.75 372.39 C 129.73 372.38 124.72 372.38 119.71 372.45 C 119.70 371.69 119.68 370.16 119.66 369.40 Z" />
<path fill="#040404" opacity="1.00" d=" M 51.68 388.14 C 55.91 387.66 60.38 387.17 64.53 388.27 C 64.47 389.30 64.36 391.36 64.31 392.39 C 60.16 392.44 56.02 392.44 51.88 392.36 C 51.83 391.31 51.73 389.19 51.68 388.14 Z" />
</g>
<g id="#020202ff">
<path fill="#020202" opacity="1.00" d=" M 85.50 251.57 C 89.11 251.56 92.71 251.53 96.31 251.53 C 96.31 252.56 96.30 254.62 96.29 255.65 C 92.70 255.67 89.10 255.63 85.51 255.69 C 85.51 254.66 85.50 252.60 85.50 251.57 Z" />
<path fill="#020202" opacity="1.00" d=" M 69.20 374.29 C 71.93 374.27 74.67 374.26 77.40 374.43 C 77.32 375.85 77.42 378.64 75.15 378.18 C 73.23 378.23 71.32 378.21 69.41 378.24 C 69.33 376.92 69.26 375.60 69.20 374.29 Z" />
</g>
<g id="#010204ff">
<path fill="#010204" opacity="1.00" d=" M 116.61 251.53 C 121.22 251.51 125.82 251.53 130.43 251.53 C 130.41 252.56 130.37 254.62 130.35 255.65 C 125.78 255.64 121.20 255.70 116.63 255.63 C 116.63 254.60 116.62 252.56 116.61 251.53 Z" />
</g>
<g id="#110e57ff">
<path fill="#110e57" opacity="1.00" d=" M 492.38 262.35 L 492.81 262.09 C 492.70 262.86 492.47 264.38 492.36 265.15 C 487.06 264.58 481.69 264.79 476.40 265.35 L 475.46 265.46 C 475.44 264.85 475.38 263.63 475.35 263.02 C 480.57 265.37 487.50 265.68 492.38 262.35 Z" />
</g>
<g id="#010101ff">
<path fill="#010101" opacity="1.00" d=" M 515.08 254.24 C 520.35 254.23 525.63 254.22 530.91 254.25 C 530.90 255.38 530.90 256.53 530.90 257.67 C 525.64 257.70 520.38 257.67 515.12 257.69 C 515.10 256.54 515.08 255.39 515.08 254.24 Z" />
<path fill="#010101" opacity="1.00" d=" M 498.53 277.43 C 504.94 276.05 511.50 276.87 517.99 276.98 C 536.80 277.35 555.62 276.61 574.43 277.28 C 574.41 277.84 574.39 278.95 574.37 279.50 C 548.95 279.07 523.52 279.48 498.09 279.31 L 497.47 277.62 L 498.53 277.43 Z" />
<path fill="#010101" opacity="1.00" d=" M 527.53 343.55 C 533.60 343.43 539.67 343.54 545.74 343.47 C 545.78 344.04 545.85 345.16 545.89 345.72 C 539.77 345.68 533.65 345.75 527.53 345.71 C 527.53 345.17 527.53 344.09 527.53 343.55 Z" />
<path fill="#010101" opacity="1.00" d=" M 283.33 390.22 C 378.46 390.19 473.60 390.22 568.74 390.22 C 568.73 390.82 568.70 392.04 568.68 392.65 C 473.54 392.59 378.41 392.63 283.27 392.63 C 283.28 392.03 283.31 390.82 283.33 390.22 Z" />
</g>
<g id="#141615ff">
<path fill="#141615" opacity="1.00" d=" M 533.65 254.21 C 534.91 254.21 536.19 254.23 537.47 254.25 C 537.45 255.40 537.45 256.56 537.45 257.72 C 536.18 257.70 534.92 257.69 533.67 257.68 C 533.66 256.52 533.65 255.36 533.65 254.21 Z" />
</g>
<g id="#c93c7dff">
</g>
<g id="#840b28ff">
</g>
<g id="#e6091cff">
<path fill="#e6091c" opacity="1.00" d=" M 146.14 260.66 C 146.13 259.11 146.09 257.57 146.15 256.02 L 147.41 256.23 C 150.32 260.39 155.69 259.08 160.04 259.23 C 205.72 259.14 251.40 259.30 297.08 259.15 C 303.64 258.82 310.17 259.54 316.72 259.69 C 316.27 258.68 315.82 257.68 315.38 256.68 C 315.80 256.69 316.66 256.70 317.09 256.71 C 324.03 257.64 331.03 257.19 338.01 257.25 C 352.23 257.29 366.46 257.18 380.69 257.28 C 380.59 258.40 380.52 259.52 380.46 260.65 C 373.34 260.90 366.20 260.87 359.08 260.86 C 288.10 260.68 217.12 261.09 146.14 260.66 Z" />
</g>
<g id="#ef0406ff">
<path fill="#ef0406" opacity="1.00" d=" M 147.41 256.23 C 149.59 256.06 151.76 255.83 153.94 255.77 C 205.63 255.77 257.32 255.79 309.00 255.75 C 311.72 255.80 314.40 256.28 317.09 256.71 C 316.66 256.70 315.80 256.69 315.38 256.68 C 315.82 257.68 316.27 258.68 316.72 259.69 C 310.17 259.54 303.64 258.82 297.08 259.15 C 251.40 259.30 205.72 259.14 160.04 259.23 C 155.69 259.08 150.32 260.39 147.41 256.23 Z" />
<path fill="#ef0406" opacity="1.00" d=" M 418.84 307.21 C 424.77 306.44 430.91 306.18 436.81 307.22 C 437.22 310.24 432.88 308.62 431.05 309.02 C 427.06 308.28 421.87 310.63 418.84 307.21 Z" />
</g>
<g id="#0b2184ff">
</g>
<g id="#1503b9ff">
<path fill="#1503b9" opacity="1.00" d=" M 115.35 262.42 C 125.16 261.90 135.01 262.20 144.84 262.30 C 152.69 262.54 160.54 262.25 168.38 262.45 L 169.89 262.83 C 164.51 265.10 158.63 264.22 152.97 264.31 C 142.66 264.36 132.34 264.46 122.03 264.33 C 119.65 264.37 117.43 263.48 115.35 262.42 Z" />
<path fill="#1503b9" opacity="1.00" d=" M 469.90 308.84 C 470.20 307.52 470.48 306.21 470.82 304.91 C 470.65 308.06 470.59 311.22 470.69 314.38 C 452.34 314.30 433.99 314.41 415.64 314.33 C 415.62 313.03 415.62 311.73 415.61 310.44 L 415.71 310.44 C 423.64 310.25 431.57 310.41 439.50 310.33 L 439.92 310.33 C 439.83 311.12 439.65 312.70 439.56 313.49 C 440.53 313.50 442.46 313.53 443.42 313.54 C 443.41 312.73 443.38 311.12 443.37 310.31 L 443.60 310.31 C 450.73 310.27 457.86 310.49 464.99 310.12 C 466.68 309.86 469.94 311.66 469.90 308.84 Z" />
<path fill="#1503b9" opacity="1.00" d=" M 134.83 312.71 C 135.59 310.45 138.01 310.49 139.98 310.47 C 210.07 310.63 280.16 310.42 350.24 310.55 C 350.20 311.13 350.12 312.29 350.08 312.87 L 348.98 312.85 C 285.00 312.78 221.01 312.95 157.02 312.75 C 149.62 312.79 142.22 313.19 134.83 312.71 Z" />
</g>
<g id="#57239dff">
</g>
<g id="#303aacff">
<path fill="#303aac" opacity="1.00" d=" M 380.24 262.07 L 381.50 262.02 C 390.66 261.76 399.85 261.71 409.01 262.04 L 408.26 262.89 C 399.41 262.78 390.55 263.29 381.71 262.69 L 380.24 262.07 Z" />
</g>
<g id="#3cce54ff">
<path fill="#3cce54" opacity="1.00" d=" M 409.01 262.04 C 408.80 263.85 408.72 265.68 408.70 267.51 L 408.36 267.57 C 404.72 267.50 401.09 267.28 397.45 267.25 C 396.54 265.77 394.98 265.37 393.38 265.33 C 384.07 265.01 374.75 265.48 365.45 265.18 L 365.45 264.12 C 373.96 264.71 382.50 264.26 391.02 264.41 C 396.34 264.26 401.70 264.69 407.01 264.17 C 407.32 263.85 407.95 263.21 408.26 262.89 L 409.01 262.04 Z" />
</g>
<g id="#313bacff">
<path fill="#313bac" opacity="1.00" d=" M 415.39 262.47 C 416.57 262.13 417.77 261.92 419.00 261.85 C 436.23 261.76 453.47 262.03 470.71 261.70 L 470.67 262.88 C 463.46 263.09 456.24 262.96 449.02 262.83 C 446.69 262.73 444.42 263.33 442.21 263.99 C 441.58 263.89 440.30 263.70 439.67 263.60 C 431.67 261.94 423.44 263.77 415.39 262.47 Z" />
</g>
<g id="#acd6bbff">
</g>
<g id="#03267cff">
<path fill="#03267c" opacity="1.00" d=" M 364.23 264.04 C 369.88 262.18 375.89 263.27 381.71 262.69 C 390.55 263.29 399.41 262.78 408.26 262.89 C 407.95 263.21 407.32 263.85 407.01 264.17 C 401.70 264.69 396.34 264.26 391.02 264.41 C 382.50 264.26 373.96 264.71 365.45 264.12 L 364.23 264.04 Z" />
</g>
<g id="#01287cff">
<path fill="#01287c" opacity="1.00" d=" M 415.39 262.47 C 423.44 263.77 431.67 261.94 439.67 263.60 L 439.65 264.44 C 431.63 264.40 423.62 264.50 415.60 264.35 L 415.39 262.47 Z" />
</g>
<g id="#002676ff">
<path fill="#002676" opacity="1.00" d=" M 442.21 263.99 C 444.42 263.33 446.69 262.73 449.02 262.83 C 456.24 262.96 463.46 263.09 470.67 262.88 L 470.64 264.38 C 461.70 264.35 452.73 264.72 443.80 264.20 L 442.21 263.99 Z" />
</g>
<g id="#1b8e6bff">
</g>
<g id="#f4f4f6ff">
</g>
<g id="#4bd258ff">
<path fill="#4bd258" opacity="1.00" d=" M 415.60 264.35 C 423.62 264.50 431.63 264.40 439.65 264.44 C 439.58 265.52 439.52 266.61 439.44 267.69 C 431.49 267.63 423.54 267.69 415.59 267.56 C 415.59 266.49 415.59 265.42 415.60 264.35 Z" />
</g>
<g id="#c65f5cff">
</g>
<g id="#cfffdcff">
</g>
<g id="#51d150ff">
<path fill="#51d150" opacity="1.00" d=" M 443.80 264.20 C 452.73 264.72 461.70 264.35 470.64 264.38 C 470.63 265.44 470.63 266.51 470.64 267.57 C 461.51 267.61 452.37 267.64 443.23 267.55 C 443.41 266.43 443.60 265.31 443.80 264.20 Z" />
</g>
<g id="#b6b6feff">
<path fill="#b6b6fe" opacity="1.00" d=" M 114.23 265.06 C 132.22 264.75 150.22 265.18 168.21 264.81 L 168.80 265.83 C 153.88 266.28 138.95 265.90 124.02 266.11 C 120.75 266.13 117.49 265.95 114.23 265.74 L 114.23 265.06 Z" />
</g>
<g id="#36df50ff">
<path fill="#36df50" opacity="1.00" d=" M 168.21 264.81 L 168.76 264.78 C 185.14 264.68 201.53 264.67 217.92 264.81 L 217.94 266.28 C 216.32 266.37 214.64 266.63 213.69 268.15 L 213.46 268.33 C 211.31 268.10 209.17 267.68 207.00 267.71 C 194.59 267.73 182.19 267.75 169.79 267.70 C 169.54 267.23 169.05 266.30 168.80 265.83 L 168.21 264.81 Z" />
</g>
<g id="#48d666ff">
</g>
<g id="#49d161ff">
<path fill="#49d161" opacity="1.00" d=" M 365.45 265.18 C 374.75 265.48 384.07 265.01 393.38 265.33 C 393.40 265.68 393.45 266.37 393.47 266.72 C 384.14 266.19 374.78 266.27 365.45 266.69 C 365.45 266.31 365.45 265.56 365.45 265.18 Z" />
</g>
<g id="#bfffbdff">
</g>
<g id="#c2b0fcff">
</g>
<g id="#68b82dff">
</g>
<g id="#68b32cff">
<path fill="#68b32c" opacity="1.00" d=" M 365.45 266.69 C 374.78 266.27 384.14 266.19 393.47 266.72 L 393.51 268.24 C 384.17 268.25 374.82 268.37 365.48 268.18 L 365.45 266.69 Z" />
</g>
<g id="#8d6114ff">
<path fill="#8d6114" opacity="1.00" d=" M 397.45 267.25 C 401.09 267.28 404.72 267.50 408.36 267.57 C 407.88 267.84 406.92 268.37 406.44 268.64 C 403.55 268.63 400.62 268.54 397.80 269.27 L 396.49 269.79 C 396.51 269.24 396.54 268.15 396.56 267.61 L 397.45 267.25 Z" />
</g>
<g id="#fecbc5ff">
</g>
<g id="#e10d19ff">
<path fill="#e10d19" opacity="1.00" d=" M 474.91 267.31 C 482.76 267.63 490.62 267.38 498.48 267.46 C 498.47 270.45 498.58 273.45 498.46 276.44 L 497.13 276.68 C 497.16 274.00 497.18 271.32 497.24 268.64 C 496.50 268.74 495.76 268.84 495.03 268.93 C 489.76 269.41 484.48 269.29 479.20 269.30 C 478.15 271.47 477.15 273.66 476.28 275.90 L 476.10 275.05 C 475.47 272.72 476.77 269.98 475.29 267.92 L 474.91 267.31 Z" />
<path fill="#e10d19" opacity="1.00" d=" M 365.66 304.99 C 370.06 305.81 374.56 305.39 379.01 305.44 C 383.81 305.36 388.64 305.75 393.43 305.14 C 393.48 306.81 393.57 308.47 393.71 310.14 C 384.45 310.25 375.18 310.26 365.92 310.20 C 365.86 308.46 365.78 306.72 365.66 304.99 Z" />
</g>
<g id="#ffeff2ff">
<path fill="#ffeff2" opacity="1.00" d=" M 365.98 299.48 C 375.00 299.47 384.03 299.19 393.04 299.56 C 384.02 299.48 374.99 299.74 365.98 299.48 Z" />
</g>
<g id="#cf3737ff">
<path fill="#cf3737" opacity="1.00" d=" M 508.28 267.61 C 515.94 267.04 523.63 267.54 531.31 267.29 C 531.27 269.65 531.25 272.00 531.23 274.36 C 523.68 274.56 516.12 274.55 508.57 274.45 C 508.57 272.16 508.56 269.88 508.28 267.61 M 510.02 273.09 C 515.34 273.66 520.70 273.41 526.04 273.43 C 527.76 273.67 528.59 271.74 529.83 270.95 C 528.60 270.16 527.72 268.39 526.06 268.56 C 521.35 268.45 516.60 268.30 511.90 268.73 C 509.95 269.29 510.46 271.58 510.02 273.09 Z" />
</g>
<g id="#cb2c31ff">
<path fill="#cb2c31" opacity="1.00" d=" M 533.46 267.46 C 537.83 267.35 542.20 267.34 546.58 267.53 C 546.45 269.79 546.39 272.06 546.33 274.34 C 542.08 274.50 537.83 274.51 533.59 274.42 C 533.56 272.35 533.56 270.28 533.48 268.21 L 533.46 267.46 M 535.42 269.80 C 534.98 271.47 535.53 272.52 537.06 272.97 C 539.98 273.80 543.94 273.34 544.67 269.81 C 541.83 268.49 538.08 267.63 535.42 269.80 Z" />
</g>
<g id="#f38d8cff">
<path fill="#f38d8c" opacity="1.00" d=" M 213.46 268.33 L 213.69 268.15 C 213.72 268.27 213.78 268.51 213.80 268.63 L 214.16 270.03 C 214.34 271.43 214.43 272.85 214.45 274.26 C 196.32 273.44 178.15 274.08 160.01 273.94 C 130.53 273.51 101.04 274.39 71.58 273.57 C 79.35 272.69 87.18 273.51 94.97 272.93 C 118.65 273.38 142.36 273.31 166.04 272.93 C 179.69 273.45 193.38 272.94 207.04 273.14 C 209.77 273.05 215.07 273.43 212.74 268.92 C 212.92 268.77 213.28 268.48 213.46 268.33 Z" />
</g>
<g id="#a23000ff">
</g>
<g id="#cd1920ff">
</g>
<g id="#fac5bfff">
</g>
<g id="#660000ff">
<path fill="#660000" opacity="1.00" d=" M 365.48 268.18 C 374.82 268.37 384.17 268.25 393.51 268.24 C 393.52 268.39 393.52 268.70 393.52 268.86 C 393.51 271.38 393.48 273.91 393.48 276.45 C 394.24 276.35 395.75 276.15 396.51 276.05 C 396.51 277.24 396.51 278.44 396.51 279.63 C 395.91 279.59 394.71 279.51 394.11 279.47 C 393.56 280.21 393.02 280.96 392.48 281.71 C 392.70 277.59 392.69 273.47 392.69 269.35 C 384.26 267.46 375.62 270.01 367.08 269.13 C 366.46 273.10 366.39 277.23 366.62 281.21 C 367.26 281.35 368.54 281.63 369.18 281.77 C 368.50 281.73 367.14 281.65 366.46 281.61 C 366.10 281.10 365.37 280.08 365.01 279.58 L 364.37 279.51 C 364.68 278.43 364.99 277.35 365.29 276.27 C 365.53 273.58 365.51 270.88 365.48 268.18 Z" />
</g>
<g id="#ffd4c4ff">
</g>
<g id="#c82528ff">
<path fill="#c82528" opacity="1.00" d=" M 408.36 267.57 L 408.70 267.51 C 409.12 269.66 409.23 271.86 409.16 274.05 C 409.21 274.59 409.31 275.69 409.36 276.23 C 409.39 277.29 409.37 278.36 409.28 279.42 C 409.19 280.13 408.99 281.56 408.90 282.27 C 404.77 282.31 400.64 282.33 396.52 282.32 C 396.51 281.42 396.51 280.53 396.51 279.63 C 396.51 278.44 396.51 277.24 396.51 276.05 C 396.49 273.96 396.44 271.87 396.49 269.79 L 397.80 269.27 C 398.37 272.95 398.13 276.69 398.51 280.38 C 401.03 281.79 404.11 281.47 406.81 280.77 C 408.22 276.83 407.14 272.61 406.44 268.64 C 406.92 268.37 407.88 267.84 408.36 267.57 Z" />
</g>
<g id="#bc181fff">
<path fill="#bc181f" opacity="1.00" d=" M 415.59 267.56 C 423.54 267.69 431.49 267.63 439.44 267.69 C 439.19 270.63 439.14 273.58 438.71 276.50 L 438.41 277.30 C 433.91 277.48 429.39 277.19 424.91 277.74 L 424.18 279.23 C 424.11 279.39 423.96 279.72 423.88 279.88 C 423.74 280.55 423.45 281.90 423.30 282.57 C 420.76 282.58 418.21 282.60 415.67 282.62 C 415.63 281.66 415.58 280.70 415.51 279.75 L 414.16 279.60 C 414.49 279.32 415.14 278.75 415.47 278.46 C 415.48 277.90 415.50 276.78 415.51 276.22 C 415.56 273.33 415.59 270.44 415.59 267.56 M 417.76 269.77 C 417.06 273.36 417.36 277.06 417.38 280.70 C 418.69 280.67 420.00 280.64 421.32 280.62 C 422.06 278.78 422.97 277.00 424.17 275.42 C 428.68 275.44 433.24 275.78 437.70 274.95 C 437.67 273.07 437.65 271.20 437.64 269.33 C 431.03 269.40 424.27 268.49 417.76 269.77 Z" />
</g>
<g id="#a33003ff">
<path fill="#a33003" opacity="1.00" d=" M 443.23 267.55 C 452.37 267.64 461.51 267.61 470.64 267.57 C 470.58 268.12 470.47 269.21 470.41 269.75 C 461.67 268.72 452.88 269.53 444.13 269.23 L 443.23 267.55 Z" />
</g>
<g id="#870000ff">
<path fill="#870000" opacity="1.00" d=" M 395.92 304.79 C 400.17 304.43 404.44 304.65 408.70 304.69 C 408.65 306.65 408.64 308.61 408.68 310.58 L 408.03 310.54 C 407.92 310.21 407.70 309.55 407.60 309.22 C 407.38 308.47 406.95 306.98 406.74 306.23 C 404.02 306.24 401.31 306.25 398.60 306.22 C 397.90 305.82 397.20 305.44 396.50 305.06 L 395.92 304.79 Z" />
</g>
<g id="#2a0000ff">
<path fill="#2a0000" opacity="1.00" d=" M 495.03 268.93 C 495.76 268.84 496.50 268.74 497.24 268.64 C 497.18 271.32 497.16 274.00 497.13 276.68 L 498.46 276.44 C 501.89 275.97 505.36 276.29 508.82 276.21 C 530.67 276.21 552.53 276.09 574.38 276.25 L 574.43 277.28 C 555.62 276.61 536.80 277.35 517.99 276.98 C 511.50 276.87 504.94 276.05 498.53 277.43 C 491.16 276.90 483.77 277.33 476.40 277.07 C 476.33 276.57 476.18 275.55 476.10 275.05 L 476.28 275.90 L 476.46 276.74 C 483.19 276.76 489.93 276.61 496.67 276.78 C 496.77 274.20 496.87 271.62 496.83 269.04 C 496.38 269.01 495.48 268.96 495.03 268.93 Z" />
<path fill="#2a0000" opacity="1.00" d=" M 438.71 276.50 C 449.05 276.60 459.42 278.15 469.73 276.51 C 473.86 276.55 477.85 277.94 482.00 277.85 C 487.15 277.72 492.31 277.93 497.47 277.62 L 498.09 279.31 C 473.45 279.30 448.82 279.46 424.18 279.23 L 424.91 277.74 C 429.39 277.19 433.91 277.48 438.41 277.30 L 438.71 276.50 Z" />
<path fill="#2a0000" opacity="1.00" d=" M 56.43 298.58 C 56.51 298.14 56.68 297.27 56.76 296.84 C 93.48 296.71 130.20 296.84 166.91 296.76 C 168.95 296.74 171.00 296.78 173.02 297.07 C 177.66 297.74 182.35 297.79 187.03 297.71 C 235.67 297.71 284.30 297.71 332.94 297.71 C 338.81 297.68 344.71 298.04 350.55 297.16 L 352.22 296.97 C 351.07 298.77 350.38 301.54 347.91 301.88 C 344.96 302.27 341.99 301.99 339.04 301.98 C 292.03 301.97 245.02 301.99 198.01 302.00 C 191.25 301.84 184.48 301.99 177.73 302.34 C 160.17 301.95 142.61 302.32 125.05 302.01 C 110.72 301.67 96.39 302.21 82.06 302.03 C 82.07 302.63 82.08 303.84 82.09 304.44 C 82.09 304.90 82.10 305.80 82.10 306.25 L 82.11 306.69 C 81.88 308.49 81.59 310.29 81.37 312.11 C 81.57 308.49 81.37 304.87 81.20 301.26 C 80.55 301.23 79.25 301.16 78.61 301.13 C 78.58 302.69 78.54 304.26 78.52 305.83 C 74.16 305.43 69.78 305.45 65.41 305.49 C 65.04 307.29 64.39 309.12 64.86 310.97 C 65.09 311.27 65.57 311.87 65.80 312.18 C 70.01 312.57 74.25 312.33 78.47 312.43 C 73.71 312.71 68.95 312.46 64.18 312.56 C 64.27 308.80 64.32 305.05 64.26 301.30 C 61.71 301.12 59.15 301.10 56.59 301.22 C 56.56 300.77 56.50 299.88 56.47 299.43 C 54.53 299.56 52.58 299.70 50.63 299.70 C 52.45 298.84 54.45 298.69 56.43 298.58 M 57.54 298.85 C 57.91 299.15 58.63 299.75 58.99 300.06 C 65.22 300.66 71.66 300.70 77.89 300.04 L 78.01 298.91 C 71.23 298.17 64.35 298.47 57.54 298.85 M 81.59 300.14 C 88.05 300.64 94.54 300.28 101.02 300.40 C 184.02 300.32 267.02 300.62 350.01 300.28 L 349.27 298.63 C 345.21 298.06 341.09 298.37 337.00 298.29 C 285.99 298.31 234.97 298.27 183.95 298.31 C 150.96 298.95 117.95 298.45 84.96 298.57 C 83.51 298.39 82.38 298.91 81.59 300.14 Z" />
</g>
<g id="#cc2626ff">
<path fill="#cc2626" opacity="1.00" d=" M 547.67 267.55 C 552.32 267.35 556.98 267.38 561.64 267.52 C 561.60 269.81 561.58 272.10 561.56 274.40 C 556.88 274.18 551.98 275.25 547.48 273.68 C 547.58 271.64 547.63 269.59 547.67 267.55 M 550.12 269.25 C 550.08 270.41 550.04 271.57 550.01 272.74 C 553.27 272.85 556.52 272.88 559.79 272.80 C 559.85 271.56 559.92 270.31 560.00 269.07 C 556.71 268.64 553.39 268.71 550.12 269.25 Z" />
</g>
<g id="#c81a1aff">
<path fill="#c81a1a" opacity="1.00" d=" M 562.22 267.46 C 566.34 267.46 570.46 267.44 574.58 267.45 C 574.58 269.76 574.57 272.07 574.56 274.38 C 570.45 274.42 566.34 274.44 562.24 274.43 C 562.21 272.10 562.20 269.78 562.22 267.46 M 563.89 269.19 C 563.85 270.40 563.96 271.60 564.22 272.79 C 567.27 273.94 570.77 272.81 573.18 270.75 C 570.98 267.78 566.99 269.11 563.89 269.19 Z" />
</g>
<g id="#fb0102ff">
<path fill="#fb0102" opacity="1.00" d=" M 214.16 270.03 C 216.41 269.67 218.68 269.34 220.98 269.29 C 255.97 269.35 290.96 269.30 325.95 269.29 C 333.53 269.35 341.12 269.10 348.70 269.58 C 348.42 273.24 348.50 276.91 348.55 280.57 C 338.72 281.52 328.85 280.92 319.00 281.10 C 287.33 281.07 255.67 281.12 224.01 281.06 C 207.09 280.44 190.16 281.52 173.25 280.85 C 171.96 278.97 170.66 277.11 169.35 275.25 C 182.90 275.37 196.45 275.08 210.00 275.28 C 211.55 275.34 213.03 274.86 214.45 274.26 C 214.43 272.85 214.34 271.43 214.16 270.03 Z" />
</g>
<g id="#f80304ff">
<path fill="#f80304" opacity="1.00" d=" M 367.08 269.13 C 375.62 270.01 384.26 267.46 392.69 269.35 C 392.69 273.47 392.70 277.59 392.48 281.71 C 384.72 282.16 376.93 282.66 369.18 281.77 C 368.54 281.63 367.26 281.35 366.62 281.21 C 366.39 277.23 366.46 273.10 367.08 269.13 Z" />
</g>
<g id="#f40606ff">
<path fill="#f40606" opacity="1.00" d=" M 397.80 269.27 C 400.62 268.54 403.55 268.63 406.44 268.64 C 407.14 272.61 408.22 276.83 406.81 280.77 C 404.11 281.47 401.03 281.79 398.51 280.38 C 398.13 276.69 398.37 272.95 397.80 269.27 Z" />
</g>
<g id="#f40504ff">
<path fill="#f40504" opacity="1.00" d=" M 417.76 269.77 C 424.27 268.49 431.03 269.40 437.64 269.33 C 437.65 271.20 437.67 273.07 437.70 274.95 C 433.24 275.78 428.68 275.44 424.17 275.42 C 422.97 277.00 422.06 278.78 421.32 280.62 C 420.00 280.64 418.69 280.67 417.38 280.70 C 417.36 277.06 417.06 273.36 417.76 269.77 Z" />
</g>
<g id="#f50504ff">
<path fill="#f50504" opacity="1.00" d=" M 444.13 269.23 C 452.88 269.53 461.67 268.72 470.41 269.75 C 470.18 271.88 469.97 274.01 469.77 276.14 C 461.34 276.92 452.83 276.82 444.39 276.22 C 444.34 273.89 444.31 271.55 444.13 269.23 Z" />
</g>
<g id="#f80407ff">
<path fill="#f80407" opacity="1.00" d=" M 479.20 269.30 C 484.48 269.29 489.76 269.41 495.03 268.93 C 495.48 268.96 496.38 269.01 496.83 269.04 C 496.87 271.62 496.77 274.20 496.67 276.78 C 489.93 276.61 483.19 276.76 476.46 276.74 L 476.28 275.90 C 477.15 273.66 478.15 271.47 479.20 269.30 Z" />
</g>
<g id="#f40507ff">
<path fill="#f40507" opacity="1.00" d=" M 510.02 273.09 C 510.46 271.58 509.95 269.29 511.90 268.73 C 516.60 268.30 521.35 268.45 526.06 268.56 C 527.72 268.39 528.60 270.16 529.83 270.95 C 528.59 271.74 527.76 273.67 526.04 273.43 C 520.70 273.41 515.34 273.66 510.02 273.09 Z" />
</g>
<g id="#f4060dff">
<path fill="#f4060d" opacity="1.00" d=" M 535.42 269.80 C 538.08 267.63 541.83 268.49 544.67 269.81 C 543.94 273.34 539.98 273.80 537.06 272.97 C 535.53 272.52 534.98 271.47 535.42 269.80 Z" />
</g>
<g id="#f1080eff">
<path fill="#f1080e" opacity="1.00" d=" M 550.12 269.25 C 553.39 268.71 556.71 268.64 560.00 269.07 C 559.92 270.31 559.85 271.56 559.79 272.80 C 556.52 272.88 553.27 272.85 550.01 272.74 C 550.04 271.57 550.08 270.41 550.12 269.25 Z" />
</g>
<g id="#f3030cff">
<path fill="#f3030c" opacity="1.00" d=" M 563.89 269.19 C 566.99 269.11 570.98 267.78 573.18 270.75 C 570.77 272.81 567.27 273.94 564.22 272.79 C 563.96 271.60 563.85 270.40 563.89 269.19 Z" />
</g>
<g id="#f30a0bff">
<path fill="#f30a0b" opacity="1.00" d=" M 80.05 275.49 C 101.04 275.21 122.05 275.42 143.05 275.34 C 150.00 275.57 156.96 275.06 163.90 275.57 C 135.96 275.73 108.00 275.75 80.05 275.49 Z" />
<path fill="#f30a0b" opacity="1.00" d=" M 397.99 292.15 C 401.49 291.72 405.02 291.64 408.53 292.04 C 408.56 293.60 408.54 295.17 408.52 296.75 C 404.87 296.49 401.06 297.28 397.54 296.16 C 397.65 294.81 397.80 293.48 397.99 292.15 Z" />
</g>
<g id="#060304ff">
<path fill="#060304" opacity="1.00" d=" M 350.39 276.32 C 350.93 276.30 352.00 276.28 352.54 276.27 C 356.79 276.18 361.04 276.23 365.29 276.27 C 364.99 277.35 364.68 278.43 364.37 279.51 C 360.21 279.44 356.05 279.52 351.90 279.45 L 350.61 279.49 C 350.55 278.70 350.44 277.11 350.39 276.32 Z" />
</g>
<g id="#0c0303ff">
<path fill="#0c0303" opacity="1.00" d=" M 409.36 276.23 C 411.41 276.21 413.46 276.21 415.51 276.22 C 415.50 276.78 415.48 277.90 415.47 278.46 C 415.14 278.75 414.49 279.32 414.16 279.60 C 412.53 279.51 410.90 279.45 409.28 279.42 C 409.37 278.36 409.39 277.29 409.36 276.23 Z" />
</g>
<g id="#fea4a6ff">
<path fill="#fea4a6" opacity="1.00" d=" M 71.60 277.32 C 95.72 276.48 119.88 277.26 144.01 277.05 C 152.66 277.04 161.32 276.75 169.96 277.17 C 169.81 279.06 169.63 280.95 169.40 282.85 C 169.14 281.35 168.84 279.87 168.54 278.39 C 137.70 277.29 106.83 278.58 75.98 277.88 C 74.51 277.79 73.05 277.56 71.60 277.32 Z" />
</g>
<g id="#d55384ff">
</g>
<g id="#f6f4f4ff">
</g>
<g id="#eee2ffff">
</g>
<g id="#7e7b7dff">
<path fill="#7e7b7d" opacity="1.00" d=" M 423.88 279.88 C 423.96 279.72 424.11 279.39 424.18 279.23 C 448.82 279.46 473.45 279.30 498.09 279.31 C 523.52 279.48 548.95 279.07 574.37 279.50 C 547.11 279.88 519.83 279.54 492.57 279.67 C 469.67 279.80 446.78 279.48 423.88 279.88 Z" />
</g>
<g id="#ce6cadff">
</g>
<g id="#f4f2f7ff">
</g>
<g id="#f1f0ffff">
</g>
<g id="#cd6bb9ff">
</g>
<g id="#010100ff">
<path fill="#010100" opacity="1.00" d=" M 74.58 283.15 C 84.63 283.16 94.68 283.18 104.73 283.17 C 104.75 284.31 104.77 285.46 104.79 286.62 C 94.66 286.61 84.52 286.65 74.39 286.59 C 74.44 285.73 74.53 284.01 74.58 283.15 Z" />
<path fill="#010100" opacity="1.00" d=" M 234.28 374.28 C 314.05 374.24 393.81 374.30 473.57 374.26 C 473.58 375.42 473.60 376.60 473.63 377.78 C 462.09 378.45 450.46 378.21 438.90 377.92 C 436.92 377.36 435.96 379.00 436.44 380.73 C 425.76 380.89 415.09 380.77 404.41 380.74 C 405.09 378.63 404.03 377.90 402.12 378.18 C 382.11 378.06 362.10 378.20 342.09 378.17 C 326.06 377.75 310.00 377.73 293.97 378.15 C 274.09 377.23 254.19 378.84 234.32 377.88 C 234.30 376.68 234.29 375.48 234.28 374.28 Z" />
</g>
<g id="#8b89e7ff">
<path fill="#8b89e7" opacity="1.00" d=" M 142.12 283.24 C 151.49 283.27 160.87 283.34 170.24 282.93 L 171.28 282.94 L 170.08 283.82 C 169.66 283.91 168.80 284.08 168.37 284.17 C 159.67 283.50 150.94 283.91 142.22 283.73 L 142.09 283.73 L 142.12 283.24 Z" />
</g>
<g id="#c77ce1ff">
</g>
<g id="#1210afff">
<path fill="#1210af" opacity="1.00" d=" M 142.22 283.73 C 150.94 283.91 159.67 283.50 168.37 284.17 L 168.10 284.22 C 160.24 285.66 152.17 284.76 144.22 285.08 C 144.30 285.71 144.46 286.97 144.54 287.60 C 158.75 287.94 172.97 287.29 187.17 287.94 L 187.03 288.99 C 172.12 289.18 157.20 289.03 142.29 289.36 C 142.24 287.48 142.22 285.60 142.22 283.73 Z" />
</g>
<g id="#1c03b1ff">
<path fill="#1c03b1" opacity="1.00" d=" M 168.37 284.17 C 168.80 284.08 169.66 283.91 170.08 283.82 C 177.40 284.12 184.71 283.97 192.03 284.00 C 244.12 283.96 296.22 284.09 348.31 283.93 L 348.28 285.26 C 292.54 285.00 236.80 285.12 181.06 285.18 C 176.74 285.06 172.24 285.88 168.10 284.22 L 168.37 284.17 Z" />
</g>
<g id="#1e2199ff">
<path fill="#1e2199" opacity="1.00" d=" M 348.31 283.93 C 348.81 283.92 349.81 283.89 350.31 283.87 C 350.29 285.58 350.29 287.29 350.30 289.01 C 295.88 288.96 241.46 289.01 187.03 288.99 L 187.17 287.94 C 189.11 288.07 191.06 288.18 193.01 288.24 C 242.68 288.26 292.35 288.24 342.02 288.28 C 344.11 288.26 346.19 287.91 348.21 287.38 C 348.23 286.85 348.27 285.79 348.28 285.26 L 348.31 283.93 Z" />
</g>
<g id="#1c0ba1ff">
<path fill="#1c0ba1" opacity="1.00" d=" M 396.53 284.03 C 400.59 284.03 404.66 284.01 408.73 284.00 C 408.70 285.68 408.74 287.36 408.86 289.04 C 404.77 288.91 400.68 288.99 396.60 289.06 C 396.56 287.38 396.54 285.70 396.53 284.03 M 398.26 285.11 C 398.26 285.78 398.25 287.12 398.25 287.79 C 401.11 287.93 403.98 287.89 406.84 287.66 C 406.85 287.02 406.86 285.74 406.86 285.10 C 404.00 284.72 401.12 284.70 398.26 285.11 Z" />
</g>
<g id="#1c14aaff">
<path fill="#1c14aa" opacity="1.00" d=" M 415.69 283.58 C 423.68 283.74 431.67 283.52 439.67 283.46 C 439.72 285.32 439.78 287.18 439.76 289.04 C 431.69 289.05 423.62 289.11 415.55 289.04 C 415.65 287.22 415.67 285.40 415.69 283.58 M 419.31 287.45 C 425.30 288.35 431.43 287.66 437.47 287.51 C 437.57 286.92 437.76 285.73 437.86 285.14 C 431.96 284.59 425.90 284.18 420.05 285.29 C 418.77 285.37 417.18 287.25 419.31 287.45 Z" />
</g>
<g id="#0705dbff">
<path fill="#0705db" opacity="1.00" d=" M 443.51 288.96 C 443.38 287.15 443.38 285.35 443.36 283.55 C 452.43 283.54 461.51 283.60 470.58 283.53 C 470.65 285.35 470.70 287.17 470.83 288.99 C 461.73 288.84 452.61 288.93 443.51 288.96 Z" />
</g>
<g id="#1a198dff">
<path fill="#1a198d" opacity="1.00" d=" M 475.19 283.55 C 480.93 283.55 486.67 283.53 492.41 283.56 C 492.37 285.39 492.36 287.21 492.23 289.04 C 486.51 288.96 480.78 288.83 475.06 289.02 C 475.15 287.19 475.16 285.37 475.19 283.55 M 475.84 285.98 C 479.84 289.54 486.22 289.03 490.84 287.04 C 490.41 286.45 489.53 285.27 489.09 284.68 C 484.68 284.45 479.87 283.71 475.84 285.98 Z" />
</g>
<g id="#0904e3ff">
<path fill="#0904e3" opacity="1.00" d=" M 367.59 287.49 C 365.08 285.88 368.36 284.37 370.04 284.66 C 377.32 284.79 384.66 284.09 391.90 285.03 C 391.80 285.68 391.62 286.97 391.53 287.62 C 383.56 287.81 375.53 288.16 367.59 287.49 Z" />
</g>
<g id="#0403daff">
<path fill="#0403da" opacity="1.00" d=" M 398.26 285.11 C 401.12 284.70 404.00 284.72 406.86 285.10 C 406.86 285.74 406.85 287.02 406.84 287.66 C 403.98 287.89 401.11 287.93 398.25 287.79 C 398.25 287.12 398.26 285.78 398.26 285.11 Z" />
</g>
<g id="#0706e4ff">
<path fill="#0706e4" opacity="1.00" d=" M 419.31 287.45 C 417.18 287.25 418.77 285.37 420.05 285.29 C 425.90 284.18 431.96 284.59 437.86 285.14 C 437.76 285.73 437.57 286.92 437.47 287.51 C 431.43 287.66 425.30 288.35 419.31 287.45 Z" />
</g>
<g id="#0b06ebff">
<path fill="#0b06eb" opacity="1.00" d=" M 475.84 285.98 C 479.87 283.71 484.68 284.45 489.09 284.68 C 489.53 285.27 490.41 286.45 490.84 287.04 C 486.22 289.03 479.84 289.54 475.84 285.98 Z" />
</g>
<g id="#c99fffff">
</g>
<g id="#cea3fdff">
</g>
<g id="#d0a6fbff">
</g>
<g id="#e7a1cbff">
</g>
<g id="#cd9ffdff">
</g>
<g id="#cea0f9ff">
</g>
<g id="#ff9fcdff">
</g>
<g id="#fda2c9ff">
</g>
<g id="#ffdee8ff">
</g>
<g id="#f69fb6ff">
</g>
<g id="#fba09fff">
</g>
<g id="#b9292eff">
</g>
<g id="#c31c20ff">
<path fill="#c31c20" opacity="1.00" d=" M 365.41 290.92 C 374.78 291.07 384.17 291.27 393.53 290.76 C 393.56 292.81 393.58 294.85 393.60 296.90 C 384.21 297.40 374.78 297.39 365.39 296.85 C 365.38 294.87 365.39 292.89 365.41 290.92 M 367.34 292.38 C 367.28 293.51 367.23 294.65 367.19 295.79 C 375.23 296.40 383.42 296.71 391.44 295.67 C 391.52 294.57 391.61 293.48 391.71 292.39 C 383.59 292.45 375.46 292.27 367.34 292.38 Z" />
</g>
<g id="#ffd0d1ff">
</g>
<g id="#8d0001ff">
</g>
<g id="#be302fff">
</g>
<g id="#e50a09ff">
<path fill="#e50a09" opacity="1.00" d=" M 509.15 291.24 C 516.34 291.13 523.54 291.24 530.73 290.84 C 531.03 292.96 531.23 295.09 531.29 297.23 C 523.95 297.60 516.57 297.87 509.25 297.17 C 509.20 295.19 509.17 293.21 509.15 291.24 Z" />
</g>
<g id="#f60609ff">
<path fill="#f60609" opacity="1.00" d=" M 176.31 294.01 C 177.21 292.16 179.27 292.29 181.01 292.23 C 236.01 292.39 291.02 292.26 346.02 292.30 C 347.13 292.53 348.11 293.08 348.97 293.94 C 346.90 297.56 342.41 296.33 338.98 296.52 C 286.65 296.42 234.32 296.51 182.00 296.46 C 179.86 296.55 177.33 296.20 176.31 294.01 Z" />
</g>
<g id="#f20609ff">
<path fill="#f20609" opacity="1.00" d=" M 367.34 292.38 C 375.46 292.27 383.59 292.45 391.71 292.39 C 391.61 293.48 391.52 294.57 391.44 295.67 C 383.42 296.71 375.23 296.40 367.19 295.79 C 367.23 294.65 367.28 293.51 367.34 292.38 Z" />
</g>
<g id="#f40509ff">
<path fill="#f40509" opacity="1.00" d=" M 418.48 291.95 C 425.24 291.72 432.22 290.84 438.85 292.63 C 437.89 294.12 437.25 296.60 434.98 296.32 C 429.98 296.49 424.94 296.71 419.96 296.22 C 417.75 295.87 418.39 293.51 418.48 291.95 Z" />
</g>
<g id="#f4060aff">
<path fill="#f4060a" opacity="1.00" d=" M 445.04 292.16 C 453.51 291.42 462.08 291.40 470.53 292.49 C 470.46 293.87 470.38 295.27 470.31 296.67 C 462.06 296.37 453.81 296.81 445.56 296.59 C 445.38 295.11 445.21 293.63 445.04 292.16 Z" />
</g>
<g id="#ed080aff">
<path fill="#ed080a" opacity="1.00" d=" M 475.91 292.16 C 483.05 291.66 490.32 291.10 497.40 292.53 C 497.45 293.53 497.55 295.53 497.60 296.53 L 496.97 296.57 C 490.05 296.74 483.13 296.71 476.21 296.65 C 476.10 295.15 476.00 293.65 475.91 292.16 Z" />
</g>
<g id="#737270ff">
</g>
<g id="#140000ff">
<path fill="#140000" opacity="1.00" d=" M 352.22 296.97 C 356.54 296.64 360.87 296.81 365.20 296.84 C 365.31 298.17 365.43 299.50 365.55 300.84 C 374.79 301.70 384.12 301.41 393.33 300.40 C 393.87 299.59 394.42 298.78 394.98 297.97 C 395.93 298.82 396.89 299.66 397.85 300.51 C 401.30 300.57 404.75 300.58 408.20 300.57 C 408.75 299.31 409.32 298.05 409.89 296.80 C 411.78 296.90 413.68 297.06 415.56 297.42 C 416.41 297.86 417.27 298.30 418.14 298.74 C 417.33 298.80 415.71 298.92 414.91 298.98 C 416.80 300.88 419.53 300.48 421.96 300.57 C 427.72 300.47 433.49 300.66 439.25 300.43 C 439.33 300.07 439.50 299.34 439.59 298.98 C 439.69 298.46 439.91 297.42 440.01 296.91 C 442.46 296.67 443.30 298.34 443.51 300.49 C 447.79 300.77 452.35 301.36 456.10 298.78 L 457.14 298.40 C 456.14 299.89 455.14 301.39 454.15 302.89 C 459.78 302.89 465.42 302.67 471.04 303.07 C 470.99 303.46 470.90 304.23 470.85 304.61 C 461.74 303.61 452.55 304.99 443.40 304.65 C 442.16 304.73 440.93 304.89 439.70 305.07 C 431.71 305.59 423.65 305.47 415.66 305.08 C 413.35 304.79 411.02 304.70 408.70 304.69 C 404.44 304.65 400.17 304.43 395.92 304.79 C 395.08 304.87 394.25 304.99 393.43 305.14 C 388.64 305.75 383.81 305.36 379.01 305.44 C 374.56 305.39 370.06 305.81 365.66 304.99 C 360.62 304.05 355.47 304.65 350.39 304.64 C 319.94 304.20 289.48 304.57 259.03 304.45 C 200.05 304.46 141.07 304.41 82.09 304.44 C 82.08 303.84 82.07 302.63 82.06 302.03 C 96.39 302.21 110.72 301.67 125.05 302.01 C 142.61 302.32 160.17 301.95 177.73 302.34 C 184.48 301.99 191.25 301.84 198.01 302.00 C 245.02 301.99 292.03 301.97 339.04 301.98 C 341.99 301.99 344.96 302.27 347.91 301.88 C 350.38 301.54 351.07 298.77 352.22 296.97 Z" />
</g>
<g id="#050103ff">
<path fill="#050103" opacity="1.00" d=" M 499.77 297.12 C 502.43 296.43 505.26 296.76 507.98 297.00 L 509.25 297.17 C 516.57 297.87 523.95 297.60 531.29 297.23 C 538.24 297.12 545.19 297.14 552.14 297.29 C 552.20 298.14 552.30 299.83 552.35 300.68 C 558.10 300.63 563.86 300.59 569.61 300.78 C 569.77 301.58 570.08 303.19 570.24 303.99 C 560.17 303.29 550.09 304.38 540.02 303.78 C 532.35 304.46 524.59 302.87 517.02 304.65 C 501.63 304.98 486.21 304.50 470.82 304.91 L 470.85 304.61 C 470.90 304.23 470.99 303.46 471.04 303.07 C 465.42 302.67 459.78 302.89 454.15 302.89 C 455.14 301.39 456.14 299.89 457.14 298.40 C 462.45 298.59 467.73 298.22 473.00 297.72 C 480.33 298.54 487.70 298.40 495.06 298.39 C 496.73 298.46 498.29 297.82 499.77 297.12 Z" />
</g>
<g id="#932b2fff">
<path fill="#932b2f" opacity="1.00" d=" M 57.54 298.85 C 64.35 298.47 71.23 298.17 78.01 298.91 L 77.89 300.04 C 71.66 300.70 65.22 300.66 58.99 300.06 C 58.63 299.75 57.91 299.15 57.54 298.85 Z" />
</g>
<g id="#a02a2dff">
<path fill="#a02a2d" opacity="1.00" d=" M 81.59 300.14 C 82.38 298.91 83.51 298.39 84.96 298.57 C 117.95 298.45 150.96 298.95 183.95 298.31 C 234.97 298.27 285.99 298.31 337.00 298.29 C 341.09 298.37 345.21 298.06 349.27 298.63 L 350.01 300.28 C 267.02 300.62 184.02 300.32 101.02 300.40 C 94.54 300.28 88.05 300.64 81.59 300.14 Z" />
</g>
<g id="#9e272eff">
</g>
<g id="#080102ff">
<path fill="#080102" opacity="1.00" d=" M 23.44 300.46 C 31.83 300.54 40.22 300.43 48.61 300.50 C 48.60 302.15 48.58 303.81 48.55 305.47 C 44.26 305.41 39.98 305.45 35.69 305.42 C 31.59 305.15 27.51 304.58 23.40 304.67 C 23.41 303.61 23.43 301.51 23.44 300.46 Z" />
</g>
<g id="#ffcdc6ff">
</g>
<g id="#620708ff">
<path fill="#620708" opacity="1.00" d=" M 82.09 304.44 C 141.07 304.41 200.05 304.46 259.03 304.45 C 289.48 304.57 319.94 304.20 350.39 304.64 C 350.25 306.50 350.09 308.36 349.87 310.22 C 349.47 309.95 348.68 309.42 348.28 309.15 L 348.55 308.09 C 348.66 307.66 348.86 306.80 348.96 306.37 C 337.98 305.76 326.98 306.39 316.00 305.81 C 311.32 305.76 306.66 306.47 301.98 306.27 C 288.67 305.27 275.32 307.05 262.00 305.94 C 256.01 305.28 250.04 306.42 244.05 306.13 C 236.36 305.57 228.66 306.70 220.96 306.17 C 214.64 305.62 208.31 306.23 201.98 305.82 C 179.36 306.75 156.70 306.01 134.06 306.27 C 123.02 306.63 112.00 305.17 100.97 305.90 C 94.68 306.48 88.38 305.60 82.10 306.25 C 82.10 305.80 82.09 304.90 82.09 304.44 Z" />
</g>
<g id="#846f7bff">
</g>
<g id="#ffcbd5ff">
</g>
<g id="#ffd1ccff">
</g>
<g id="#720b0bff">
<path fill="#720b0b" opacity="1.00" d=" M 443.40 304.65 C 452.55 304.99 461.74 303.61 470.85 304.61 L 470.82 304.91 C 470.48 306.21 470.20 307.52 469.90 308.84 C 469.79 307.73 469.67 306.62 469.52 305.52 C 460.82 305.36 452.16 306.45 443.46 306.38 L 443.40 304.65 Z" />
</g>
<g id="#055105ff">
<path fill="#055105" opacity="1.00" d=" M 517.02 304.65 C 524.59 302.87 532.35 304.46 540.02 303.78 C 550.09 304.38 560.17 303.29 570.24 303.99 L 570.53 305.25 L 569.06 305.18 C 562.42 304.89 555.77 305.27 549.13 305.01 C 544.79 304.95 540.45 305.38 536.12 305.12 C 529.75 304.65 523.34 305.88 517.02 304.65 Z" />
</g>
<g id="#c83538ff">
<path fill="#c83538" opacity="1.00" d=" M 48.55 305.47 L 48.73 305.47 C 48.70 307.89 48.67 310.30 48.64 312.72 C 44.26 312.85 39.88 312.93 35.51 312.60 C 35.57 310.20 35.61 307.81 35.69 305.42 C 39.98 305.45 44.26 305.41 48.55 305.47 M 37.59 311.29 C 40.09 311.42 42.61 311.74 45.11 311.36 C 47.16 310.79 48.55 307.78 46.04 306.73 C 43.69 306.37 41.27 306.36 38.91 306.71 C 36.93 307.48 37.71 309.67 37.59 311.29 Z" />
</g>
<g id="#faf4f7ff">
</g>
<g id="#982272ff">
<path fill="#982272" opacity="1.00" d=" M 396.50 305.06 C 397.20 305.44 397.90 305.82 398.60 306.22 C 398.27 306.81 397.59 307.97 397.26 308.55 C 400.63 309.47 404.13 309.48 407.60 309.22 C 407.70 309.55 407.92 310.21 408.03 310.54 C 404.22 310.46 400.41 310.43 396.60 310.48 C 396.57 308.67 396.53 306.86 396.50 305.06 Z" />
</g>
<g id="#bd1920ff">
<path fill="#bd1920" opacity="1.00" d=" M 415.66 305.08 C 423.65 305.47 431.71 305.59 439.70 305.07 C 439.60 306.82 439.55 308.57 439.50 310.33 C 431.57 310.41 423.64 310.25 415.71 310.44 C 415.67 308.64 415.66 306.86 415.66 305.08 M 418.84 307.21 C 421.87 310.63 427.06 308.28 431.05 309.02 C 432.88 308.62 437.22 310.24 436.81 307.22 C 430.91 306.18 424.77 306.44 418.84 307.21 Z" />
</g>
<g id="#5ce160ff">
<path fill="#5ce160" opacity="1.00" d=" M 517.02 304.65 C 523.34 305.88 529.75 304.65 536.12 305.12 C 540.45 305.38 544.79 304.95 549.13 305.01 C 549.24 305.62 549.45 306.86 549.56 307.47 C 555.68 307.61 561.81 307.36 567.94 307.56 L 568.99 308.06 C 567.07 308.25 565.15 308.31 563.24 308.36 L 563.72 309.58 C 562.86 309.20 562.02 308.82 561.17 308.44 C 551.45 307.81 541.67 308.92 532.01 307.66 C 527.31 308.54 522.53 308.35 517.78 308.27 C 517.52 307.06 517.27 305.86 517.02 304.65 Z" />
</g>
<g id="#3fdf3eff">
<path fill="#3fdf3e" opacity="1.00" d=" M 549.13 305.01 C 555.77 305.27 562.42 304.89 569.06 305.18 C 569.27 305.79 569.67 306.99 569.88 307.59 L 567.94 307.56 C 561.81 307.36 555.68 307.61 549.56 307.47 C 549.45 306.86 549.24 305.62 549.13 305.01 Z" />
</g>
<g id="#f0070bff">
<path fill="#f0070b" opacity="1.00" d=" M 64.86 310.97 C 64.39 309.12 65.04 307.29 65.41 305.49 C 69.78 305.45 74.16 305.43 78.52 305.83 C 78.48 308.03 78.47 310.22 78.47 312.43 C 74.25 312.33 70.01 312.57 65.80 312.18 C 65.57 311.87 65.09 311.27 64.86 310.97 Z" />
</g>
<g id="#f80404ff">
<path fill="#f80404" opacity="1.00" d=" M 82.10 306.25 C 88.38 305.60 94.68 306.48 100.97 305.90 C 112.00 305.17 123.02 306.63 134.06 306.27 C 156.70 306.01 179.36 306.75 201.98 305.82 C 208.31 306.23 214.64 305.62 220.96 306.17 C 228.66 306.70 236.36 305.57 244.05 306.13 C 250.04 306.42 256.01 305.28 262.00 305.94 C 275.32 307.05 288.67 305.27 301.98 306.27 C 306.66 306.47 311.32 305.76 316.00 305.81 C 326.98 306.39 337.98 305.76 348.96 306.37 C 348.86 306.80 348.66 307.66 348.55 308.09 C 340.72 307.53 332.86 307.78 325.02 307.73 C 278.68 307.80 232.35 307.72 186.01 307.75 C 183.08 307.66 180.19 308.26 177.41 309.16 C 164.26 309.54 151.10 309.07 137.95 309.33 C 134.09 309.20 130.90 312.12 127.01 311.77 C 112.17 311.68 97.33 311.79 82.50 311.63 C 82.36 309.97 82.20 308.34 82.11 306.69 L 82.10 306.25 Z" />
</g>
<g id="#e60913ff">
<path fill="#e60913" opacity="1.00" d=" M 398.60 306.22 C 401.31 306.25 404.02 306.24 406.74 306.23 C 406.95 306.98 407.38 308.47 407.60 309.22 C 404.13 309.48 400.63 309.47 397.26 308.55 C 397.59 307.97 398.27 306.81 398.60 306.22 Z" />
</g>
<g id="#e60a1dff">
<path fill="#e60a1d" opacity="1.00" d=" M 443.46 306.38 C 452.16 306.45 460.82 305.36 469.52 305.52 C 469.67 306.62 469.79 307.73 469.90 308.84 C 469.94 311.66 466.68 309.86 464.99 310.12 C 457.86 310.49 450.73 310.27 443.60 310.31 C 443.55 308.99 443.50 307.68 443.46 306.38 Z" />
</g>
<g id="#f40707ff">
<path fill="#f40707" opacity="1.00" d=" M 37.59 311.29 C 37.71 309.67 36.93 307.48 38.91 306.71 C 41.27 306.36 43.69 306.37 46.04 306.73 C 48.55 307.78 47.16 310.79 45.11 311.36 C 42.61 311.74 40.09 311.42 37.59 311.29 Z" />
</g>
<g id="#990f66ff">
<path fill="#990f66" opacity="1.00" d=" M 82.11 306.69 C 82.20 308.34 82.36 309.97 82.50 311.63 C 97.33 311.79 112.17 311.68 127.01 311.77 C 130.90 312.12 134.09 309.20 137.95 309.33 C 151.10 309.07 164.26 309.54 177.41 309.16 C 187.61 309.66 197.82 309.25 208.03 309.36 C 252.00 309.39 295.96 309.35 339.93 309.38 C 342.71 309.37 345.50 309.28 348.28 309.15 C 348.68 309.42 349.47 309.95 349.87 310.22 L 350.24 310.55 C 280.16 310.42 210.07 310.63 139.98 310.47 C 138.01 310.49 135.59 310.45 134.83 312.71 L 135.56 313.64 C 135.10 313.50 134.19 313.22 133.73 313.07 C 125.20 312.05 116.49 312.92 107.88 312.65 C 99.03 312.66 90.18 312.66 81.33 312.67 L 81.37 312.11 C 81.59 310.29 81.88 308.49 82.11 306.69 Z" />
</g>
<g id="#e80827ff">
<path fill="#e80827" opacity="1.00" d=" M 177.41 309.16 C 180.19 308.26 183.08 307.66 186.01 307.75 C 232.35 307.72 278.68 307.80 325.02 307.73 C 332.86 307.78 340.72 307.53 348.55 308.09 L 348.28 309.15 C 345.50 309.28 342.71 309.37 339.93 309.38 C 295.96 309.35 252.00 309.39 208.03 309.36 C 197.82 309.25 187.61 309.66 177.41 309.16 Z" />
</g>
<g id="#140bafff">
<path fill="#140baf" opacity="1.00" d=" M 408.03 310.54 L 408.68 310.58 C 408.69 311.86 408.70 313.15 408.71 314.44 C 407.07 314.38 405.44 314.34 403.81 314.21 L 403.28 314.17 C 397.97 312.63 392.43 313.44 387.00 313.30 C 379.78 313.19 372.55 313.48 365.34 312.90 C 365.49 312.38 365.77 311.33 365.91 310.81 C 376.13 310.13 386.39 311.11 396.60 310.48 C 400.41 310.43 404.22 310.46 408.03 310.54 Z" />
</g>
<g id="#e9dfffff">
</g>
<g id="#0708c4ff">
<path fill="#0708c4" opacity="1.00" d=" M 475.12 310.28 C 482.92 310.25 490.72 310.28 498.53 310.26 C 498.46 311.63 498.42 313.00 498.37 314.37 C 490.64 314.33 482.92 314.39 475.19 314.32 C 475.16 312.97 475.14 311.62 475.12 310.28 Z" />
</g>
<g id="#090dbfff">
<path fill="#090dbf" opacity="1.00" d=" M 508.51 310.30 C 516.03 310.29 523.55 310.22 531.08 310.27 C 530.94 311.60 531.62 313.20 530.53 314.29 C 523.23 314.46 515.92 314.34 508.61 314.33 C 508.57 312.98 508.54 311.64 508.51 310.30 Z" />
</g>
<g id="#6267cbff">
<path fill="#6267cb" opacity="1.00" d=" M 547.79 309.87 C 550.63 309.83 553.47 309.67 556.31 309.84 C 558.38 310.44 557.14 312.97 556.91 314.46 C 556.75 313.54 556.43 311.69 556.27 310.76 C 553.90 310.76 551.54 310.75 549.18 310.76 C 548.79 311.43 548.01 312.77 547.61 313.45 C 547.66 312.55 547.75 310.76 547.79 309.87 Z" />
</g>
<g id="#96adeeff">
</g>
<g id="#0507d6ff">
<path fill="#0507d6" opacity="1.00" d=" M 535.88 314.48 C 535.81 313.03 536.20 311.80 537.05 310.77 C 539.46 310.19 541.91 310.90 544.32 311.16 C 543.23 312.23 542.14 313.29 541.06 314.36 C 539.32 314.38 537.60 314.41 535.88 314.48 Z" />
</g>
<g id="#0807c6ff">
<path fill="#0807c6" opacity="1.00" d=" M 549.18 310.76 C 551.54 310.75 553.90 310.76 556.27 310.76 C 556.43 311.69 556.75 313.54 556.91 314.46 C 553.63 314.32 550.35 314.35 547.08 314.36 L 547.61 313.45 C 548.01 312.77 548.79 311.43 549.18 310.76 Z" />
</g>
<g id="#f8ddadff">
</g>
<g id="#67cb99ff">
</g>
<g id="#012f9bff">
<path fill="#012f9b" opacity="1.00" d=" M 134.83 312.71 C 142.22 313.19 149.62 312.79 157.02 312.75 C 221.01 312.95 285.00 312.78 348.98 312.85 L 348.88 314.28 C 281.57 314.29 214.27 314.27 146.97 314.29 C 143.17 314.19 139.25 314.80 135.56 313.64 L 134.83 312.71 Z" />
</g>
<g id="#06368bff">
<path fill="#06368b" opacity="1.00" d=" M 348.98 312.85 L 350.08 312.87 C 355.11 313.02 360.14 312.96 365.18 312.90 L 365.34 312.90 C 372.55 313.48 379.78 313.19 387.00 313.30 C 392.43 313.44 397.97 312.63 403.28 314.17 C 391.29 314.47 379.30 314.12 367.31 314.38 C 361.48 314.24 355.65 314.29 349.82 314.30 L 348.88 314.28 L 348.98 312.85 Z" />
</g>
<g id="#83c966ff">
<path fill="#83c966" opacity="1.00" d=" M 109.15 314.52 C 117.57 313.73 126.11 313.67 134.54 314.42 C 134.14 314.56 133.34 314.84 132.94 314.97 C 125.01 315.11 117.03 315.91 109.15 314.52 Z" />
</g>
<g id="#c6fdcaff">
</g>
<g id="#7afa7fff">
</g>
<g id="#35e835ff">
<path fill="#35e835" opacity="1.00" d=" M 149.55 318.52 C 218.37 318.24 287.19 318.43 356.01 318.41 C 373.48 318.62 390.98 317.99 408.44 318.69 C 408.49 319.33 408.58 320.61 408.62 321.25 C 389.74 321.78 370.84 321.29 351.95 321.47 C 305.28 321.49 258.60 321.48 211.93 321.48 C 207.40 321.46 202.83 321.19 198.33 321.95 C 192.27 322.87 186.12 322.29 180.01 322.44 C 169.80 322.20 159.54 322.98 149.36 321.93 C 149.42 320.79 149.49 319.65 149.55 318.52 Z" />
</g>
<g id="#37e72dff">
<path fill="#37e72d" opacity="1.00" d=" M 417.60 319.08 C 422.38 318.57 427.20 318.85 432.00 318.88 C 443.36 318.98 454.71 318.74 466.06 318.88 C 468.14 318.69 469.82 319.85 471.27 321.21 C 461.85 321.79 452.41 321.36 442.98 321.50 C 434.17 321.38 425.35 321.74 416.55 321.26 C 416.81 320.71 417.34 319.63 417.60 319.08 Z" />
</g>
<g id="#3be432ff">
<path fill="#3be432" opacity="1.00" d=" M 474.15 321.30 C 475.01 320.42 475.97 319.69 477.04 319.11 C 486.79 318.19 496.57 319.13 506.27 320.29 C 504.31 321.26 502.13 321.58 499.97 321.52 C 491.36 321.46 482.75 321.67 474.15 321.30 Z" />
</g>
<g id="#2aef28ff">
<path fill="#2aef28" opacity="1.00" d=" M 506.72 320.36 C 511.58 318.42 516.88 319.19 521.97 319.12 C 535.89 319.50 549.82 318.74 563.73 319.37 L 564.79 319.43 C 564.50 320.22 563.94 321.80 563.65 322.59 C 545.98 322.45 528.30 322.58 510.63 322.53 L 509.70 321.98 C 508.72 321.41 507.72 320.86 506.72 320.36 Z" />
<path fill="#2aef28" opacity="1.00" d=" M 165.13 341.34 C 171.08 341.73 177.05 341.45 183.00 341.53 C 227.48 341.47 271.96 341.58 316.45 341.48 L 316.93 341.47 C 378.05 341.48 439.18 341.31 500.30 341.54 C 493.68 343.31 486.79 342.86 480.02 342.89 C 449.02 342.82 418.02 342.88 387.02 342.88 C 365.68 342.67 344.32 343.46 322.99 342.35 C 270.98 342.21 218.95 342.54 166.94 342.19 C 166.49 341.98 165.58 341.55 165.13 341.34 Z" />
</g>
<g id="#7ca221ff">
</g>
<g id="#7ba41dff">
</g>
<g id="#e50c09ff">
<path fill="#e50c09" opacity="1.00" d=" M 198.33 321.95 C 198.37 322.25 198.43 322.86 198.46 323.16 C 198.64 324.51 198.84 325.86 199.05 327.22 C 199.82 326.25 200.60 325.30 201.37 324.34 C 203.59 324.17 205.80 324.02 208.03 323.99 C 247.33 324.28 286.63 323.95 325.93 324.06 C 344.96 324.34 363.99 324.15 383.02 324.21 C 390.80 324.27 398.60 323.77 406.37 324.47 C 406.63 325.56 406.90 326.66 407.18 327.76 C 337.61 327.73 268.04 327.79 198.47 327.71 C 198.44 326.50 198.42 325.28 198.39 324.07 C 198.38 323.54 198.35 322.48 198.33 321.95 Z" />
</g>
<g id="#b22b06ff">
</g>
<g id="#fcbbb4ff">
</g>
<g id="#de0e06ff">
<path fill="#de0e06" opacity="1.00" d=" M 415.58 323.36 C 422.74 323.57 429.86 322.18 437.02 323.03 C 454.63 322.61 472.29 322.44 489.90 323.05 C 496.10 322.68 502.40 322.14 508.50 323.68 C 508.60 324.84 508.70 326.00 508.78 327.17 L 508.78 327.75 C 478.19 327.77 447.60 327.75 417.01 327.76 C 416.73 327.40 416.18 326.67 415.91 326.31 C 415.83 325.57 415.66 324.10 415.58 323.36 Z" />
</g>
<g id="#c34847ff">
<path fill="#c34847" opacity="1.00" d=" M 173.66 333.71 C 173.66 332.91 173.66 331.30 173.65 330.49 L 174.54 330.54 C 174.53 331.81 174.54 333.11 174.55 334.40 C 171.41 334.62 168.31 335.05 165.21 335.53 C 165.30 336.49 165.49 338.42 165.58 339.39 C 173.05 339.86 180.53 339.62 188.00 339.64 C 224.01 339.64 260.01 339.65 296.01 339.64 C 302.81 339.58 309.62 339.91 316.40 339.33 C 316.41 339.87 316.43 340.94 316.45 341.48 C 271.96 341.58 227.48 341.47 183.00 341.53 C 177.05 341.45 171.08 341.73 165.13 341.34 C 164.82 341.21 164.18 340.94 163.87 340.81 L 163.80 340.82 L 163.64 340.86 C 163.69 338.58 163.70 336.31 163.67 334.03 C 166.98 333.61 170.33 333.65 173.66 333.71 Z" />
</g>
<g id="#020001ff">
<path fill="#020001" opacity="1.00" d=" M 174.54 330.54 C 225.34 330.87 276.15 330.58 326.96 330.67 C 386.97 330.66 446.99 330.67 507.00 330.68 C 523.16 330.51 539.33 330.97 555.48 330.43 C 555.60 331.85 555.72 333.27 555.83 334.69 C 552.01 334.73 548.19 334.73 544.38 334.74 C 471.94 334.62 399.49 334.66 327.05 334.71 C 323.92 334.72 320.79 334.78 317.67 334.62 C 317.32 334.60 316.63 334.55 316.28 334.53 C 308.20 333.96 300.09 334.38 292.00 334.26 C 252.85 334.36 213.69 334.05 174.55 334.40 C 174.54 333.11 174.53 331.81 174.54 330.54 Z" />
</g>
<g id="#f0cab7ff">
</g>
<g id="#914400ff">
<path fill="#914400" opacity="1.00" d=" M 120.19 334.24 C 125.31 333.94 130.45 333.84 135.58 334.26 C 135.67 336.70 135.74 339.15 136.00 341.58 C 130.57 341.65 125.12 341.36 119.70 341.90 L 119.70 341.17 C 119.80 338.85 120.00 336.55 120.19 334.24 M 121.31 335.50 C 121.34 336.49 121.40 338.46 121.43 339.45 C 125.97 339.07 131.74 341.23 135.09 337.15 C 134.58 336.58 133.56 335.45 133.05 334.88 C 129.13 335.01 125.18 334.68 121.31 335.50 Z" />
</g>
<g id="#b6321bff">
<path fill="#b6321b" opacity="1.00" d=" M 142.05 334.23 C 147.85 333.58 153.77 333.41 159.55 334.31 C 159.42 336.68 159.34 339.05 159.34 341.43 C 153.76 341.53 148.18 341.50 142.60 341.44 C 142.41 339.03 142.24 336.63 142.05 334.23 M 144.35 335.31 C 144.33 336.48 144.32 337.66 144.30 338.84 C 148.74 339.51 153.27 339.74 157.70 338.83 C 157.67 337.63 157.66 336.42 157.64 335.22 C 153.24 334.42 148.74 334.50 144.35 335.31 Z" />
</g>
<g id="#f0fdefff">
</g>
<g id="#f30706ff">
<path fill="#f30706" opacity="1.00" d=" M 121.31 335.50 C 125.18 334.68 129.13 335.01 133.05 334.88 C 133.56 335.45 134.58 336.58 135.09 337.15 C 131.74 341.23 125.97 339.07 121.43 339.45 C 121.40 338.46 121.34 336.49 121.31 335.50 Z" />
</g>
<g id="#f10609ff">
<path fill="#f10609" opacity="1.00" d=" M 144.35 335.31 C 148.74 334.50 153.24 334.42 157.64 335.22 C 157.66 336.42 157.67 337.63 157.70 338.83 C 153.27 339.74 148.74 339.51 144.30 338.84 C 144.32 337.66 144.33 336.48 144.35 335.31 Z" />
</g>
<g id="#f30309ff">
<path fill="#f30309" opacity="1.00" d=" M 165.21 335.53 C 168.31 335.05 171.41 334.62 174.55 334.40 C 213.69 334.05 252.85 334.36 292.00 334.26 C 300.09 334.38 308.20 333.96 316.28 334.53 C 316.32 336.13 316.36 337.73 316.40 339.33 C 309.62 339.91 302.81 339.58 296.01 339.64 C 260.01 339.65 224.01 339.64 188.00 339.64 C 180.53 339.62 173.05 339.86 165.58 339.39 C 165.49 338.42 165.30 336.49 165.21 335.53 Z" />
</g>
<g id="#e5998dff">
</g>
<g id="#f0f5f5ff">
</g>
<g id="#d1ded1ff">
</g>
<g id="#010506ff">
<path fill="#010506" opacity="1.00" d=" M 328.09 336.18 C 399.18 336.15 470.27 336.31 541.36 336.10 C 541.33 336.72 541.28 337.96 541.26 338.58 C 528.00 339.05 514.71 338.63 501.44 338.82 C 443.69 338.71 385.94 338.87 328.19 338.75 C 328.17 338.11 328.12 336.82 328.09 336.18 Z" />
</g>
<g id="#6ddd73ff">
</g>
<g id="#beffbcff">
</g>
<g id="#26f026ff">
<path fill="#26f026" opacity="1.00" d=" M 83.42 341.53 C 88.08 341.38 92.74 341.44 97.40 341.41 C 97.75 342.63 98.11 343.86 98.46 345.09 C 98.15 345.66 97.53 346.80 97.21 347.37 C 92.68 347.53 88.14 347.50 83.60 347.39 C 83.52 345.43 83.46 343.48 83.42 341.53 Z" />
</g>
<g id="#2af026ff">
<path fill="#2af026" opacity="1.00" d=" M 500.30 341.54 L 501.28 341.33 L 501.67 341.24 C 501.52 343.37 501.38 345.51 501.07 347.63 C 500.51 346.11 500.44 344.49 500.39 342.89 C 500.19 343.99 499.99 345.09 499.80 346.20 C 498.67 345.70 497.53 345.28 496.36 344.93 C 490.34 343.50 484.09 344.46 477.97 344.07 C 425.32 343.81 372.67 344.39 320.03 343.93 C 276.37 343.44 232.71 343.75 189.06 343.71 C 183.85 343.86 178.50 343.30 173.43 344.82 C 172.08 345.26 171.11 346.40 170.02 347.24 C 168.18 347.01 166.42 346.42 164.86 345.44 C 165.55 344.35 166.24 343.27 166.94 342.19 C 218.95 342.54 270.98 342.21 322.99 342.35 C 344.32 343.46 365.68 342.67 387.02 342.88 C 418.02 342.88 449.02 342.82 480.02 342.89 C 486.79 342.86 493.68 343.31 500.30 341.54 Z" />
</g>
<g id="#1ef723ff">
<path fill="#1ef723" opacity="1.00" d=" M 55.47 341.58 C 63.13 341.36 70.79 341.43 78.45 341.54 C 78.47 343.49 78.48 345.45 78.46 347.41 C 71.22 347.43 63.98 347.60 56.76 347.36 C 54.37 346.42 55.82 343.48 55.47 341.58 Z" />
</g>
<g id="#20f620ff">
<path fill="#20f620" opacity="1.00" d=" M 106.24 342.31 C 110.71 341.87 115.21 341.64 119.70 341.90 C 124.99 342.55 130.54 341.42 135.59 343.51 C 135.32 344.31 134.79 345.92 134.52 346.73 C 125.17 347.31 115.76 347.31 106.41 346.73 C 106.35 345.25 106.30 343.78 106.24 342.31 Z" />
</g>
<g id="#1df523ff">
<path fill="#1df523" opacity="1.00" d=" M 143.51 343.52 C 148.06 341.92 153.07 342.16 157.73 343.10 C 157.68 344.29 157.64 345.49 157.60 346.68 C 152.90 347.25 148.13 347.54 143.45 346.63 C 143.47 345.59 143.49 344.55 143.51 343.52 Z" />
</g>
<g id="#3be73dff">
<path fill="#3be73d" opacity="1.00" d=" M 173.43 344.82 C 178.50 343.30 183.85 343.86 189.06 343.71 C 232.71 343.75 276.37 343.44 320.03 343.93 C 372.67 344.39 425.32 343.81 477.97 344.07 C 484.09 344.46 490.34 343.50 496.36 344.93 C 405.24 345.34 314.11 345.03 222.99 345.12 C 206.47 344.91 189.94 345.57 173.43 344.82 Z" />
</g>
<g id="#058607ff">
<path fill="#058607" opacity="1.00" d=" M 170.02 347.24 C 171.11 346.40 172.08 345.26 173.43 344.82 C 189.94 345.57 206.47 344.91 222.99 345.12 C 314.11 345.03 405.24 345.34 496.36 344.93 C 497.53 345.28 498.67 345.70 499.80 346.20 L 499.57 347.56 C 499.16 347.51 498.33 347.40 497.92 347.35 C 493.96 345.18 489.35 345.95 485.04 345.82 C 382.67 345.82 280.31 345.81 177.94 345.80 C 175.67 345.81 173.32 346.03 171.48 347.50 L 170.02 347.24 Z" />
</g>
<g id="#003100ff">
<path fill="#003100" opacity="1.00" d=" M 171.48 347.50 C 173.32 346.03 175.67 345.81 177.94 345.80 C 280.31 345.81 382.67 345.82 485.04 345.82 C 489.35 345.95 493.96 345.18 497.92 347.35 C 466.28 347.70 434.62 347.39 402.98 347.49 C 325.81 347.49 248.64 347.48 171.48 347.50 Z" />
</g>
<g id="#070708ff">
<path fill="#070708" opacity="1.00" d=" M 60.20 354.48 C 60.65 353.56 60.10 351.30 61.83 351.84 C 89.93 351.72 118.03 351.99 146.12 351.71 C 146.14 352.30 146.18 353.49 146.19 354.08 C 145.70 354.17 144.71 354.36 144.21 354.45 C 116.22 354.70 88.20 354.49 60.20 354.48 Z" />
</g>
<g id="#219f25ff">
</g>
<g id="#21f020ff">
<path fill="#21f020" opacity="1.00" d=" M 443.01 353.53 C 464.45 353.64 485.88 353.02 507.32 353.33 L 508.56 353.30 C 508.51 354.33 508.42 356.40 508.37 357.44 C 481.57 357.76 454.77 357.54 427.96 357.63 C 425.50 357.65 423.03 357.62 420.59 357.36 L 420.07 357.32 C 414.42 356.39 408.70 356.79 403.01 356.75 C 317.97 356.73 232.92 356.79 147.89 356.72 C 148.08 355.98 148.46 354.48 148.65 353.74 C 152.07 353.29 155.52 353.49 158.96 353.51 C 253.64 353.51 348.33 353.49 443.01 353.53 Z" />
</g>
<g id="#000400ff">
<path fill="#000400" opacity="1.00" d=" M 89.39 357.35 C 108.15 357.31 126.91 357.39 145.67 357.32 C 237.14 357.24 328.60 357.23 420.07 357.32 L 420.59 357.36 C 420.63 358.56 420.71 359.75 420.82 360.94 L 421.15 361.66 C 464.29 361.62 507.43 361.71 550.57 361.61 C 550.59 362.91 550.60 364.22 550.64 365.53 C 442.80 365.41 334.96 365.61 227.12 365.43 L 227.19 365.24 C 227.56 364.25 227.93 363.27 228.30 362.29 C 288.86 362.09 349.42 362.24 409.97 362.22 C 413.18 361.99 416.87 362.96 419.74 361.34 C 418.17 361.03 416.59 360.87 415.00 360.82 C 358.34 360.88 301.68 360.79 245.02 360.87 C 239.08 360.88 233.13 360.63 227.22 361.23 C 181.31 361.70 135.38 361.26 89.46 361.45 C 89.44 360.08 89.42 358.72 89.39 357.35 Z" />
</g>
<g id="#424044ff">
</g>
<g id="#41e049ff">
<path fill="#41e049" opacity="1.00" d=" M 239.35 368.39 C 296.89 368.10 354.44 368.36 411.98 368.27 C 455.89 368.33 499.80 368.17 543.70 368.35 C 543.63 369.42 543.57 370.50 543.52 371.58 C 442.19 371.57 340.87 371.65 239.54 371.52 C 239.47 370.47 239.41 369.43 239.35 368.39 Z" />
</g>
<g id="#060708ff">
<path fill="#060708" opacity="1.00" d=" M 199.32 369.37 C 205.71 369.32 212.11 369.33 218.50 369.35 C 218.46 370.36 218.41 371.38 218.36 372.40 C 211.97 372.39 205.58 372.47 199.20 372.33 C 199.23 371.59 199.29 370.11 199.32 369.37 Z" />
</g>
<g id="#000000ff">
<path fill="#000000" opacity="1.00" d=" M 86.55 374.35 C 94.40 374.26 102.26 374.18 110.11 374.35 C 112.96 375.66 116.10 375.61 119.18 375.52 C 119.75 373.79 121.76 374.46 123.07 374.25 C 129.25 374.30 135.42 374.29 141.60 374.30 C 141.54 375.60 141.49 376.91 141.42 378.22 C 123.93 378.08 106.43 378.17 88.94 378.18 C 86.47 378.71 86.45 376.01 86.55 374.35 Z" />
<path fill="#000000" opacity="1.00" d=" M 145.61 374.32 C 154.10 374.25 162.58 374.28 171.07 374.29 C 171.09 375.77 171.60 378.67 169.12 378.15 C 161.25 377.98 153.35 378.58 145.51 377.75 C 145.55 376.60 145.58 375.46 145.61 374.32 Z" />
</g>
<g id="#020203ff">
<path fill="#020203" opacity="1.00" d=" M 188.74 374.45 C 200.74 374.10 212.75 374.35 224.76 374.30 C 224.68 375.60 224.60 376.91 224.51 378.22 C 212.58 377.73 200.55 378.88 188.68 377.63 C 188.70 376.56 188.72 375.50 188.74 374.45 Z" />
</g>
<g id="#000101ff">
<path fill="#000101" opacity="1.00" d=" M 478.52 375.24 C 485.78 374.35 493.17 375.14 500.49 374.80 C 500.57 376.05 500.65 377.29 500.75 378.55 C 493.30 378.55 485.85 378.53 478.40 378.57 C 478.41 377.46 478.45 376.34 478.52 375.24 Z" />
</g>
<g id="#00000fff">
<path fill="#00000f" opacity="1.00" d=" M 263.64 379.47 C 296.73 379.25 329.83 379.44 362.93 379.37 C 362.91 380.77 362.89 382.18 362.88 383.59 C 329.90 383.59 296.92 383.60 263.94 383.60 C 263.83 382.22 263.73 380.84 263.64 379.47 Z" />
</g>
<g id="#383894ff">
<path fill="#383894" opacity="1.00" d=" M 213.56 387.17 C 212.14 387.27 212.12 383.96 213.54 384.07 C 213.55 384.84 213.55 386.39 213.56 387.17 Z" />
</g>
<g id="#0603ccff">
<path fill="#0603cc" opacity="1.00" d=" M 213.54 384.07 C 216.96 383.34 220.47 383.69 223.94 383.64 C 237.27 383.63 250.61 383.68 263.94 383.60 C 296.92 383.60 329.90 383.59 362.88 383.59 C 428.38 383.74 493.88 383.54 559.39 383.69 C 559.41 384.64 559.45 386.53 559.47 387.48 C 445.64 387.68 331.80 387.50 217.97 387.53 C 216.49 387.53 215.01 387.40 213.56 387.17 C 213.55 386.39 213.55 384.84 213.54 384.07 Z" />
</g>
<g id="#060606ff">
<path fill="#060606" opacity="1.00" d=" M 68.54 387.66 C 71.19 387.66 73.85 387.68 76.50 387.68 C 76.52 389.26 76.53 390.84 76.52 392.42 C 73.85 392.44 71.18 392.42 68.51 392.36 C 68.52 390.79 68.53 389.22 68.54 387.66 Z" />
<path fill="#060606" opacity="1.00" d=" M 94.53 387.65 C 96.46 387.65 98.41 387.65 100.35 387.64 C 100.37 389.23 100.39 390.82 100.40 392.42 C 98.40 392.42 96.41 392.40 94.41 392.37 C 94.44 390.79 94.48 389.22 94.53 387.65 Z" />
<path fill="#060606" opacity="1.00" d=" M 161.53 387.71 C 164.23 387.74 166.93 387.74 169.63 387.70 C 169.87 389.26 170.12 390.82 170.41 392.39 C 167.42 392.39 164.44 392.42 161.46 392.39 C 161.48 390.82 161.50 389.26 161.53 387.71 Z" />
</g>
<g id="#8f8f8fff">
<path fill="#8f8f8f" opacity="1.00" d=" M 78.18 387.79 C 81.33 387.31 84.55 387.15 87.73 387.47 C 89.27 388.65 88.26 390.93 88.54 392.60 C 85.17 392.63 81.79 392.64 78.42 392.68 C 78.34 391.04 78.27 389.41 78.18 387.79 M 79.29 387.94 C 79.23 389.37 79.18 390.80 79.13 392.24 C 82.01 392.29 84.89 392.30 87.77 392.22 C 87.74 390.84 87.69 389.46 87.65 388.08 C 84.86 388.02 82.08 387.97 79.29 387.94 Z" />
</g>
<g id="#080808ff">
<path fill="#080808" opacity="1.00" d=" M 103.64 387.68 C 106.27 387.66 108.91 387.65 111.54 387.64 C 111.56 389.22 111.58 390.80 111.58 392.39 C 108.92 392.44 106.25 392.43 103.58 392.40 C 103.60 390.82 103.61 389.25 103.64 387.68 Z" />
</g>
<g id="#070707ff">
<path fill="#070707" opacity="1.00" d=" M 79.29 387.94 C 82.08 387.97 84.86 388.02 87.65 388.08 C 87.69 389.46 87.74 390.84 87.77 392.22 C 84.89 392.30 82.01 392.29 79.13 392.24 C 79.18 390.80 79.23 389.37 79.29 387.94 Z" />
<path fill="#070707" opacity="1.00" d=" M 128.44 387.80 C 130.88 387.71 133.33 387.65 135.77 387.50 C 135.71 389.09 135.66 390.68 135.63 392.28 C 133.28 392.27 130.93 392.26 128.59 392.09 C 128.54 390.65 128.49 389.22 128.44 387.80 Z" />
</g>
<g id="#9b9b9bff">
<path fill="#9b9b9b" opacity="1.00" d=" M 135.77 387.50 C 136.55 389.08 136.45 390.87 136.53 392.60 C 131.55 392.69 126.56 392.85 121.60 392.42 C 123.33 392.32 125.07 392.22 126.81 392.12 C 126.93 391.26 127.15 389.53 127.26 388.67 C 127.73 389.75 127.27 391.60 128.59 392.09 C 130.93 392.26 133.28 392.27 135.63 392.28 C 135.66 390.68 135.71 389.09 135.77 387.50 Z" />
</g>
<g id="#020200ff">
<path fill="#020200" opacity="1.00" d=" M 122.51 395.35 C 252.87 395.19 383.24 395.24 513.60 395.27 C 513.54 396.63 513.50 398.00 513.46 399.37 C 383.19 399.34 252.92 399.32 122.65 399.36 C 122.61 398.36 122.55 396.35 122.51 395.35 Z" />
</g>
</svg>
